<svg width="94" height="77" viewBox="0 0 94 77" fill="none" xmlns="http://www.w3.org/2000/svg">
<path d="M93.5311 72.4198C83.7047 71.6795 77.0603 67.3034 72.3913 63.6313C72.4559 63.566 72.5206 63.5006 72.5924 63.4426C72.7576 63.2902 73.2461 62.9128 73.2676 62.6588C73.2892 62.4338 73.088 62.3104 73.0306 62.1218C72.6642 61.0042 72.6714 59.6979 73.2963 58.6818C73.5837 58.2101 74.0147 57.8255 74.3523 57.3828C74.7976 56.795 75.1065 56.1346 75.5878 55.5613C76.4138 54.567 77.1465 53.3768 77.7499 52.2229C78.0516 51.6423 78.1665 51.0037 78.4538 50.4159C78.7124 49.8933 78.9925 49.3563 79.0356 48.754C79.1218 47.5856 78.7555 46.2647 78.224 45.2487C77.872 44.5738 77.4841 43.957 77.0172 43.3619C76.6006 42.8466 76.0834 42.3749 75.8679 41.7507C75.5159 40.7275 75.1065 39.7841 75.0562 38.681C74.9125 39.3051 74.9844 39.8131 74.97 40.4227C74.9556 41.0033 74.7904 41.475 74.8551 42.0701C74.97 43.1006 74.9413 43.8263 74.7186 44.8206C74.5606 45.5318 74.4672 46.1777 74.0003 46.7292C73.4544 47.3679 72.7863 47.9122 72.3266 48.6306C71.594 49.7918 71.7161 51.49 71.4503 52.8108C71.3282 53.3986 70.9475 53.7832 70.9547 54.3929C70.9618 55.1766 70.9475 55.9531 70.9403 56.7442C70.9403 57.6804 70.6745 58.6383 70.6961 59.5745C70.7176 60.6123 70.9044 61.5992 71.0983 62.579C69.9562 61.65 68.9434 60.7937 68.0455 60.1043C67.6935 59.1754 67.4709 58.1956 67.3559 57.2087C67.0327 54.4437 67.4924 51.6931 68.0024 48.979C68.5627 45.9745 69.0583 42.9918 69.1445 39.9292C69.2451 36.3079 68.9147 32.6938 68.4262 29.116C68.0024 26.0316 66.6951 22.6352 67.1763 19.5364C66.2354 21.0241 65.0142 22.9328 64.7197 24.6963C64.3893 26.6848 65.1076 28.8547 65.0358 30.8722C64.928 33.8476 63.6638 36.6417 62.7731 39.4357C61.9327 42.0701 61.4945 44.7988 61.5663 47.5638C61.6454 50.6336 62.3062 53.6599 63.4914 56.4611C63.4124 56.4611 63.3406 56.4466 63.2616 56.4466C61.437 55.0532 59.6125 53.6526 57.788 52.2592C56.3801 51.1779 55.2237 50.4014 53.7511 49.516C52.688 48.8773 50.727 47.7742 51 46.2357C51.2586 44.7915 55.0944 43.0498 56.1144 41.954C59.8711 37.9117 59.1887 31.7358 57.1128 27.0549C54.254 20.6032 49.3407 15.1458 46.0508 8.94088C45.5193 12.7291 48.3351 17.5987 49.233 21.2709C50.5044 26.4453 51.1437 31.9608 49.6783 37.1642C48.8523 40.0961 47.5593 43.986 45.0955 39.9292C43.4865 37.2876 43.0986 34.0001 41.9421 31.1625C40.4839 27.5847 39.3418 23.8835 38.602 20.088C37.9914 16.9383 37.5963 13.6145 35.7862 10.9729C34.0407 8.41837 31.2752 6.93789 28.7827 5.25422C26.5272 3.73746 24.832 1.17567 22.5118 0C23.9987 3.73747 25.5359 7.56926 28.2439 10.5302C28.7611 11.0963 29.3286 11.6406 29.7308 12.2937C30.1618 12.9904 30.3917 13.7887 30.6575 14.5725C32.0869 18.7817 33.6887 22.911 35.1972 27.0984C36.799 31.5326 38.9899 35.7491 41.6979 39.5954C39.191 37.8536 37.072 35.5604 35.5132 32.926C34.5579 31.3004 33.8108 29.5441 32.6975 28.0274C30.1475 24.5439 26.01 22.7223 22.3897 20.4C19.0783 18.2737 16.3918 15.8062 12.5273 14.5362C8.23183 13.1283 4.10155 13.0122 0 15.0007C4.07282 16.8004 7.47761 17.3447 11.0763 20.4291C16.0542 24.6963 19.9906 30.0521 25.0475 34.2323C27.9207 36.6126 31.0956 38.427 34.6154 39.6462C36.5189 40.3066 38.4655 40.8001 40.4265 41.2137C41.1089 41.7362 41.7913 42.2588 42.4737 42.7813L43.1632 43.3038C43.2854 43.4272 43.4075 43.5433 43.5296 43.6667C42.1217 43.2457 40.6492 43.0062 39.1479 42.8829C36.1741 42.6361 33.1931 42.7958 30.2121 42.7522C28.7611 42.7305 27.303 42.6652 25.8592 42.4475C24.2645 42.208 22.6914 41.8161 21.147 41.3589C15.5299 39.697 9.30211 35.9377 4.05127 40.6477C10.8249 41.9612 17.419 45.2995 23.8263 47.8396L28.9766 49.8788C30.5785 50.5102 32.1731 51.2069 33.8539 51.6061C35.4989 51.998 37.2372 52.0633 38.8534 51.5044C40.3547 50.9892 41.6692 50.0675 43.0627 49.3418C45.038 48.3113 47.272 47.9194 49.4556 48.1516L56.5669 53.5945L57.2278 54.1751C56.3442 53.9792 55.4248 53.9066 54.5125 53.9429C51.5675 54.059 48.8451 55.3145 46.1299 56.345C43.4649 57.3538 40.7066 57.9561 37.898 58.3553C34.4717 58.8488 31.0094 59.1463 27.6406 59.9954C24.7673 60.7211 22.1168 62.3685 19.8325 64.2191C21.6211 64.9303 23.0147 64.4078 24.8104 64.3643C27.03 64.3062 29.3573 64.7924 31.5769 64.9303C37.2947 65.2714 43.113 65.1408 48.6799 63.6676C51.4741 62.9273 54.0744 61.7807 56.6244 60.4236C58.0107 59.6906 59.5048 58.8705 61.0635 58.4859C61.2431 58.5077 61.4227 58.4714 61.6023 58.3698C61.7028 58.348 61.8106 58.3335 61.9111 58.319C62.0763 58.4641 62.2344 58.602 62.3996 58.7472C64.26 60.3946 66.1133 62.0492 67.9737 63.6893C68.3903 64.2264 68.8644 64.7271 69.3887 65.1625C69.1804 65.1988 68.9649 65.2279 68.7495 65.2496C68.0168 65.3149 67.6073 65.4673 66.9034 65.7431C65.4452 66.3164 64.1738 67.376 62.6941 67.855C61.3652 68.2832 60.0794 68.7766 58.7793 69.2629C58.1256 69.5096 57.2852 69.887 56.6172 70.0394C55.8199 70.2208 55.4104 69.8797 54.7999 70.6055C54.1821 71.3384 53.6865 72.1803 52.8963 72.7681C52.3145 73.1963 51.5603 73.3777 50.8994 73.6753C50.3248 73.9293 49.7501 74.1688 49.1827 74.4445C48.5506 74.7566 47.8538 74.7203 47.2001 75.0106C46.7476 75.2138 46.4603 75.4388 45.9575 75.4605C45.5409 75.4823 45.117 75.4605 44.7004 75.4605C44.018 75.4605 43.3428 75.4605 42.6604 75.4605C42.0786 75.4605 41.0586 75.2428 40.6348 75.7C40.7066 76.3242 41.9277 76.433 42.3947 76.5491C43.4865 76.8249 44.5927 76.7306 45.7061 76.7378C46.4459 76.7378 47.1571 76.687 47.8538 76.8684C48.371 76.9991 48.7876 76.9991 49.3407 76.9991C50.5547 76.9991 51.7614 76.9773 52.9754 76.9991C53.8732 77.0136 54.6706 76.8612 55.511 76.4983C56.0066 76.2878 56.452 75.9976 56.9692 75.8669C57.5079 75.729 58.0682 75.8089 58.5997 75.6855C59.4258 75.4896 60.2016 74.9743 61.0132 74.6985C61.552 74.5171 62.0404 74.3357 62.5289 74.0526C63.6566 73.3922 65.0573 72.4052 65.9265 71.4618C66.8675 70.4385 67.8156 69.35 68.692 68.2614C69.3169 67.4849 70.4734 67.1583 70.8541 66.2148C71.9459 67.0712 76.3923 70.2571 78.7555 71.8973C81.5856 73.8712 89.4942 75.5621 89.839 75.5621C92.3531 75.5767 95.1042 73.1455 93.5455 72.456L93.5311 72.4198Z" fill="#8D9B6A"/>
</svg>
