<svg width="20" height="20" viewBox="0 0 20 20" fill="none" xmlns="http://www.w3.org/2000/svg">
<path d="M15.8333 3.33333H4.16663C3.50358 3.33333 2.8677 3.59673 2.39886 4.06557C1.93002 4.53441 1.66663 5.17029 1.66663 5.83333V14.1667C1.66663 14.8297 1.93002 15.4656 2.39886 15.9344C2.8677 16.4033 3.50358 16.6667 4.16663 16.6667H15.8333C16.4963 16.6667 17.1322 16.4033 17.6011 15.9344C18.0699 15.4656 18.3333 14.8297 18.3333 14.1667V5.83333C18.3333 5.17029 18.0699 4.53441 17.6011 4.06557C17.1322 3.59673 16.4963 3.33333 15.8333 3.33333ZM4.16663 5H15.8333C16.0543 5 16.2663 5.0878 16.4225 5.24408C16.5788 5.40036 16.6666 5.61232 16.6666 5.83333L9.99996 9.9L3.33329 5.83333C3.33329 5.61232 3.42109 5.40036 3.57737 5.24408C3.73365 5.0878 3.94561 5 4.16663 5ZM16.6666 14.1667C16.6666 14.3877 16.5788 14.5996 16.4225 14.7559C16.2663 14.9122 16.0543 15 15.8333 15H4.16663C3.94561 15 3.73365 14.9122 3.57737 14.7559C3.42109 14.5996 3.33329 14.3877 3.33329 14.1667V7.73333L9.56663 11.5417C9.69331 11.6148 9.83701 11.6533 9.98329 11.6533C10.1296 11.6533 10.2733 11.6148 10.4 11.5417L16.6666 7.73333V14.1667Z" fill="#343436"/>
</svg>
