<svg width="32" height="32" viewBox="0 0 32 32" fill="none" xmlns="http://www.w3.org/2000/svg">
<path d="M9.50751 9.39418C9.50426 9.38556 9.50088 9.37706 9.49738 9.36856C9.32719 8.95481 8.92838 8.68774 8.48107 8.68774C8.48076 8.68774 8.48038 8.68774 8.48001 8.68774C8.03226 8.68812 7.63338 8.95618 7.46382 9.37062C7.46094 9.37768 7.45813 9.38481 7.45538 9.39193L4.78013 16.4161C4.59582 16.9 4.83869 17.4416 5.32257 17.6259C5.80638 17.8103 6.34807 17.5673 6.53232 17.0836L6.93019 16.0389H10.0109L10.4041 17.0809C10.5458 17.4562 10.9025 17.6876 11.2814 17.6876C11.3914 17.6876 11.5033 17.6681 11.6123 17.6269C12.0967 17.4441 12.3412 16.9032 12.1584 16.4188L9.50751 9.39418ZM7.64432 14.1639L8.47763 11.9758L9.30332 14.1639H7.64432Z" fill="#FFCC00"/>
<path d="M20.4896 16.14H20.6768C20.8813 17.2818 21.4429 18.2313 22.1092 18.9937C21.4864 19.4123 20.9881 19.6325 20.9754 19.6381C20.4993 19.8414 20.2782 20.3922 20.4816 20.8684C20.6337 21.2244 20.9801 21.4378 21.3442 21.4378C21.4671 21.4378 21.5919 21.4135 21.7121 21.3622C21.7915 21.3282 22.6015 20.9742 23.5312 20.2886C24.4609 20.9742 25.271 21.3282 25.3504 21.3622C25.4705 21.4134 25.5952 21.4377 25.7178 21.4377C26.081 21.4377 26.4264 21.2249 26.5791 20.8699C26.7832 20.3949 26.5634 19.844 26.0889 19.6387C26.0756 19.633 25.5766 19.4125 24.9533 18.9936C25.6197 18.2312 26.1812 17.2817 26.3857 16.14H26.5729C27.0907 16.14 27.5104 15.7202 27.5104 15.2025C27.5104 14.6847 27.0907 14.265 26.5729 14.265H24.4688V13.3755C24.4688 12.8577 24.049 12.438 23.5312 12.438C23.0135 12.438 22.5938 12.8577 22.5938 13.3755V14.265H20.4896C19.9718 14.265 19.5521 14.6847 19.5521 15.2025C19.5521 15.7202 19.9718 16.14 20.4896 16.14ZM23.5312 17.7667C23.1267 17.3046 22.783 16.7607 22.6031 16.1401H24.4592C24.2795 16.7607 23.9358 17.3046 23.5312 17.7667Z" fill="#FFCC00"/>
<path d="M31.0625 6.93787H16.9375V4.125C16.9375 3.60725 16.5177 3.1875 16 3.1875H0.9375C0.41975 3.1875 0 3.60725 0 4.125V22.2498C0 22.7675 0.41975 23.1873 0.9375 23.1873H9.04906L10.6495 24.7875C10.8326 24.9706 11.0724 25.0621 11.3124 25.0621C11.5523 25.0621 11.7922 24.9706 11.9753 24.7875L13.5756 23.1873H15.0625V26.0001C15.0625 26.5179 15.4823 26.9376 16 26.9376H18.4243L20.0247 28.5379C20.2077 28.7209 20.4477 28.8125 20.6876 28.8125C20.9276 28.8125 21.1674 28.7209 21.3505 28.5379L22.9509 26.9376H31.0625C31.5802 26.9376 32 26.5179 32 26.0001V7.87537C32 7.35763 31.5802 6.93787 31.0625 6.93787ZM13.1874 21.3123C12.9388 21.3123 12.7003 21.411 12.5245 21.5868L11.3124 22.7989L10.1003 21.5868C9.92444 21.411 9.686 21.3123 9.43738 21.3123H1.875V5.0625H15.0625V21.3123H13.1874ZM30.125 25.0626H22.5626C22.314 25.0626 22.0755 25.1614 21.8997 25.3371L20.6876 26.5492L19.4755 25.3371C19.2996 25.1613 19.0613 25.0626 18.8126 25.0626H16.9375V8.81287H30.125V25.0626Z" fill="#FFCC00"/>
</svg>
