<svg xmlns="http://www.w3.org/2000/svg" version="1.1" xmlns:xlink="http://www.w3.org/1999/xlink" width="512" height="512" x="0" y="0" viewBox="0 0 53 60" style="enable-background:new 0 0 512 512" xml:space="preserve" class=""><g><g fill="#000" fill-rule="nonzero"><path d="M0 57a3 3 0 0 0 3 3h40a3 3 0 0 0 3-3V25a1 1 0 0 0-2 0v32a1 1 0 0 1-1 1H3a1 1 0 0 1-1-1V7a1 1 0 0 1 1-1h34.95a1 1 0 0 0 0-2H3a3 3 0 0 0-3 3z" fill="#ffffff" opacity="1" data-original="#000000" class=""></path><path d="M5 56h36a1 1 0 0 0 1-1V25a1 1 0 0 0-2 0v6H24V10h7a1 1 0 0 0 0-2H5a1 1 0 0 0-1 1v46a1 1 0 0 0 1 1zm1-23h16v21H6zm34 0v21H24V33zM6 10h16v21H6z" fill="#ffffff" opacity="1" data-original="#000000" class=""></path><path d="M9 17a1 1 0 0 0 .707-.293l3-3a1 1 0 0 0-1.414-1.414l-3 3A1 1 0 0 0 9 17zM9 22a1 1 0 0 0 .707-.293l8-8a1 1 0 0 0-1.414-1.414l-8 8A1 1 0 0 0 9 22zM27 40a1 1 0 0 0 .707-.293l3-3a1 1 0 0 0-1.414-1.414l-3 3A1 1 0 0 0 27 40zM26.293 44.707a1 1 0 0 0 1.414 0l8-8a1 1 0 0 0-1.414-1.414l-8 8a1 1 0 0 0 0 1.414zM33 11a1 1 0 0 0 1 1c7.87 0 8.007 8.6 8.009 9a1 1 0 0 0 2 .029V21c0-.368.091-9 8.01-9a1 1 0 0 0 0-2c-7.888 0-8.009-8.634-8.01-9a1 1 0 0 0-2-.027V1c0 .368-.091 9-8.009 9a1 1 0 0 0-1 1zm10.009-5.036A9.5 9.5 0 0 0 47.46 11a9.5 9.5 0 0 0-4.451 5.036A9.5 9.5 0 0 0 38.558 11a9.5 9.5 0 0 0 4.451-5.036zM33 15v-.006A1 1 0 0 0 31 15c0 .245-.084 6-5 6a1 1 0 0 0 0 2c4.916 0 5 5.757 5 6v.006A1 1 0 0 0 33 29c0-.245.084-6 5-6a1 1 0 0 0 0-2c-4.916 0-5-5.757-5-6zm1.344 7A6.721 6.721 0 0 0 32 24.713 6.721 6.721 0 0 0 29.656 22 6.715 6.715 0 0 0 32 19.287 6.715 6.715 0 0 0 34.344 22z" fill="#ffffff" opacity="1" data-original="#000000" class=""></path></g></g></svg>