<svg width="48" height="48" viewBox="0 0 48 48" fill="none" xmlns="http://www.w3.org/2000/svg">
    <g clip-path="url(#clip0_1_761)">
    <path d="M36.6562 46.5C36.6562 44.17 34.7675 42.2812 32.4375 42.2812H15.5625C13.2325 42.2812 11.3438 44.17 11.3438 46.5V48H36.6562V46.5ZM45.1875 11.3438V8.53125H27.9597C27.75 7.94298 27.412 7.4087 26.9704 6.96708C26.5288 6.52545 25.9945 6.18754 25.4062 5.97778V0H22.5938V5.97778C22.0055 6.18754 21.4712 6.52545 21.0296 6.96708C20.588 7.4087 20.25 7.94298 20.0403 8.53125H2.8125V11.3438H6.3285L0 26.8125C0 30.6893 3.15441 33.8438 7.03125 33.8438H9.84375C13.7206 33.8438 16.875 30.6893 16.875 26.8125L10.5179 11.3438H20.0404C20.2501 11.932 20.588 12.4663 21.0297 12.9079C21.4713 13.3495 22.0056 13.6875 22.5938 13.8972V33.9979C19.8456 34.5603 17.6715 36.7194 17.1112 39.4688H30.889C30.3287 36.7194 28.1546 34.5603 25.4063 33.9979V13.8972C25.9946 13.6875 26.5289 13.3495 26.9705 12.9079C27.4121 12.4663 27.7501 11.932 27.9598 11.3438H37.4536L31.125 26.8125C31.125 30.6893 34.2794 33.8438 38.1562 33.8438H40.9688C44.8456 33.8438 48 30.6893 48 26.8125L41.6429 11.3438H45.1875ZM13.359 25.4062H3.516L8.4375 13.5932L13.359 25.4062ZM44.484 25.4062H34.641L39.5625 13.5932L44.484 25.4062Z" fill="white"/>
    </g>
    <defs>
    <clipPath id="clip0_1_761">
    <rect width="48" height="48" fill="white"/>
    </clipPath>
    </defs>
    </svg>
    