<svg xmlns="http://www.w3.org/2000/svg" version="1.1" xmlns:xlink="http://www.w3.org/1999/xlink" width="512" height="512" x="0" y="0" viewBox="0 0 54 54" style="enable-background:new 0 0 512 512" xml:space="preserve" class=""><g><path d="M49.25 45.664h-2.43v-9.407c.85-.06 1.647-.51 2.1-1.296.531-.92.454-2.034-.13-2.857 1.157-1.633.166-3.986-1.97-4.151v-4.568h1.709c1.248 0 1.73-1.63.674-2.302-4.13-2.622-13.8-8.782-16.838-10.884v-2.38c0-.537-.254-1.054-.652-1.362l-3.64-3.09c-.632-.49-1.514-.49-2.17.02l-3.604 3.06c-.415.33-.663.841-.663 1.372v2.364L4.766 21.086c-1.044.674-.564 2.3.68 2.3h1.738v4.565c-2.108.154-3.147 2.5-1.974 4.153a2.645 2.645 0 0 0-.13 2.857c.454.787 1.255 1.233 2.104 1.295v9.408H4.75c-.965 0-1.75.785-1.75 1.75v1.835c0 .965.785 1.75 1.75 1.75h44.5c.965 0 1.75-.785 1.75-1.75v-1.835c0-.965-.785-1.75-1.75-1.75zm-36.375 0v-9.407a2.62 2.62 0 0 0 2.219-3.715c4.042-1.21 7.054-4.807 7.368-9.157h9.071c.314 4.353 3.324 7.963 7.366 9.175a2.62 2.62 0 0 0 2.222 3.696v9.408H12.875zm0-22.279h8.089c-.29 3.441-2.557 6.315-5.655 7.51a2.61 2.61 0 0 0-2.434-2.945zm28.246 4.568c-1.569.122-2.617 1.466-2.43 2.95-3.1-1.196-5.37-4.075-5.66-7.518h8.09zm1.5 17.71v-8.218c.829.492 1.847.505 2.7 0v8.219zm5-15.668c.295.51.159 1.157-.315 1.504a.75.75 0 0 0 0 1.21c.474.346.61.992.315 1.503-.294.51-.921.714-1.458.478a.75.75 0 0 0-1.05.605c-.062.584-.554 1.024-1.143 1.024s-1.08-.44-1.143-1.024a.75.75 0 0 0-1.05-.605 1.145 1.145 0 0 1-1.457-.48 1.145 1.145 0 0 1 .315-1.5.75.75 0 0 0 0-1.212 1.147 1.147 0 0 1-.315-1.502c.295-.51.922-.717 1.458-.478a.75.75 0 0 0 1.05-.606c.062-.584.553-1.024 1.142-1.024s1.08.44 1.143 1.024a.75.75 0 0 0 1.05.606 1.146 1.146 0 0 1 1.458.477zm-2.3-3.233a2.624 2.624 0 0 0-2.7 0v-3.377h2.7zM23.135 7.819c0-.077.036-.15.097-.198l.026-.02 3.589-3.05c.089-.069.215-.069.28-.02l3.64 3.09a.253.253 0 0 1 .097.198v2.026h-7.729zm-.534 3.526h8.782c2.79 1.943 11.78 7.677 16.285 10.54H6.292zm-11.227 12.04v3.374a2.623 2.623 0 0 0-2.691 0v-3.374zM6.379 34.211a1.146 1.146 0 0 1 .315-1.502.75.75 0 0 0 0-1.21 1.147 1.147 0 0 1-.315-1.503c.295-.51.923-.717 1.458-.478a.75.75 0 0 0 1.05-.606c.062-.584.553-1.024 1.142-1.024s1.08.44 1.143 1.024a.75.75 0 0 0 1.05.606 1.145 1.145 0 0 1 1.458.478c.294.51.159 1.156-.315 1.503a.75.75 0 0 0 0 1.21c.474.347.61.992.315 1.502a1.144 1.144 0 0 1-1.458.479.75.75 0 0 0-1.05.605c-.063.584-.554 1.024-1.143 1.024s-1.08-.44-1.143-1.024a.75.75 0 0 0-1.05-.605 1.146 1.146 0 0 1-1.457-.479zm2.305 3.237a2.624 2.624 0 0 0 2.691 0v8.216H8.684zM49.5 49.249a.25.25 0 0 1-.25.25H4.75a.25.25 0 0 1-.25-.25v-1.835a.25.25 0 0 1 .25-.25h44.5a.25.25 0 0 1 .25.25z" fill="#e53825" opacity="1" data-original="#000000" class=""></path><path d="M43.967 30.951c-.63 0-1.15.52-1.15 1.15 0 .64.52 1.15 1.15 1.15a1.15 1.15 0 0 0 0-2.3zM10.027 33.251a1.15 1.15 0 0 0 0-2.3c-.63 0-1.15.52-1.15 1.15 0 .64.52 1.15 1.15 1.15z" fill="#e53825" opacity="1" data-original="#000000" class=""></path></g></svg>