<svg width="714" height="219" viewBox="0 0 714 219" fill="none" xmlns="http://www.w3.org/2000/svg">
    <path d="M142.06 32.7V0L80.86 34.64L19.88 0V32.62L0 21.36V197.13L19.88 185.87V218.49L80.77 183.77L142.05 218.49V185.79L161.86 197.05V21.44L142.05 32.7H142.06ZM7.77 183.77V34.72L19.89 41.55V176.93L7.77 183.76V183.77ZM134.29 172.5L92.89 149.04V69.43L125.67 50.87V41.94L85.13 64.93V153.55L134.29 181.43V205.12L88.62 179.26L80.78 174.83L72.93 179.33H72.85L27.65 205.12V45.98L68.97 69.44V149.05L36.27 167.61V176.54L76.74 153.55V64.93L27.65 37.05V13.36L72.93 39.07L80.85 43.57L88.69 39.14L134.28 13.35V172.5H134.29ZM154.1 183.77L142.06 176.94V41.55L154.1 34.72V183.77Z" fill="white"/>
    <path d="M251.01 165.12C250.66 165.31 250.34 165.54 250.05 165.79C249.76 166.05 249.48 166.37 249.21 166.75C248.94 167.14 248.64 167.58 248.32 168.08C248 168.57 247.63 169.16 247.21 169.84C246.7 170.68 246.11 171.52 245.45 172.39C244.79 173.26 244.13 174.06 243.45 174.8C244.09 175.6 244.65 176.24 245.11 176.7C245.57 177.16 246 177.52 246.38 177.76C246.77 178 247.15 178.16 247.54 178.24C247.93 178.32 248.37 178.38 248.88 178.41L250.27 178.5V180.62H242.92C242.47 180.17 242.02 179.67 241.57 179.13C241.12 178.59 240.77 178.12 240.51 177.74C239.55 178.67 238.52 179.49 237.41 180.19C236.31 180.89 235.05 181.25 233.64 181.25C232.13 181.25 230.8 181.01 229.65 180.53C228.5 180.05 227.53 179.42 226.74 178.65C225.96 177.88 225.36 177.01 224.96 176.03C224.56 175.05 224.36 174.05 224.36 173.02C224.36 170.88 224.9 169.02 225.99 167.47C227.08 165.92 228.67 164.64 230.75 163.65C229.89 162.3 229.21 161.17 228.73 160.23C228.25 159.3 228.01 158.31 228.01 157.25C228.01 155.04 228.72 153.3 230.15 152.04C231.58 150.77 233.49 150.14 235.9 150.14C236.57 150.14 237.27 150.26 237.99 150.5C238.71 150.74 239.37 151.1 239.96 151.58C240.55 152.06 241.04 152.66 241.4 153.36C241.77 154.07 241.95 154.87 241.95 155.77C241.95 156.83 241.78 157.77 241.44 158.59C241.11 159.41 240.66 160.15 240.1 160.81C239.54 161.47 238.88 162.07 238.13 162.62C237.37 163.17 236.6 163.68 235.8 164.16C236.06 164.61 236.45 165.22 236.98 165.99C237.51 166.76 238.08 167.58 238.69 168.45C239.3 169.32 239.89 170.15 240.46 170.95C241.04 171.75 241.52 172.4 241.91 172.88C242.93 171.66 243.69 170.65 244.19 169.84C244.69 169.04 244.94 168.22 244.94 167.39C244.94 166.39 244.41 165.86 243.35 165.8L241.96 165.65V163.63H251V165.12H251.01ZM239.04 175.81C238.69 175.39 238.19 174.74 237.53 173.84C236.87 172.94 236.18 171.99 235.46 170.98C234.74 169.97 234.08 169.02 233.46 168.12C232.85 167.22 232.44 166.58 232.21 166.2C231.22 166.68 230.38 167.38 229.71 168.29C229.03 169.2 228.7 170.33 228.7 171.68C228.7 173.64 229.25 175.11 230.36 176.1C231.46 177.09 233.03 177.59 235.04 177.59C235.81 177.59 236.51 177.42 237.13 177.09C237.76 176.75 238.39 176.33 239.03 175.82L239.04 175.81ZM238.61 156.39C238.61 155.36 238.3 154.52 237.67 153.87C237.04 153.21 236.22 152.88 235.2 152.88C234.27 152.88 233.52 153.2 232.94 153.84C232.36 154.48 232.07 155.28 232.07 156.24C232.07 157.2 232.27 158.05 232.67 158.88C233.07 159.71 233.64 160.69 234.38 161.81C234.89 161.46 235.4 161.11 235.92 160.78C236.43 160.44 236.88 160.07 237.26 159.65C237.64 159.23 237.96 158.76 238.2 158.23C238.44 157.7 238.56 157.07 238.56 156.33L238.61 156.38V156.39Z" fill="white"/>
    <path d="M290.93 156.83C290.61 156.26 290.27 155.77 289.9 155.37C289.53 154.97 289.06 154.65 288.46 154.41C287.86 154.17 287.12 153.99 286.23 153.88C285.33 153.77 284.21 153.71 282.86 153.71C281.77 153.71 280.9 153.73 280.26 153.78C279.62 153.83 279.12 153.85 278.77 153.85C278.61 154.97 278.48 156.36 278.39 158.01C278.29 159.66 278.24 161.5 278.24 163.51H282.28C283.05 163.51 283.67 163.48 284.16 163.41C284.64 163.35 285.03 163.26 285.31 163.15C285.6 163.04 285.81 162.89 285.96 162.69C286.11 162.5 286.23 162.26 286.32 161.97H287.91C287.94 162.35 287.98 162.88 288.03 163.53C288.08 164.19 288.13 164.86 288.2 165.55C288.26 166.24 288.33 166.89 288.42 167.5C288.5 168.11 288.57 168.56 288.64 168.84H286.72C286.56 168.33 286.34 167.9 286.07 167.57C285.8 167.23 285.42 166.97 284.94 166.78C284.46 166.59 283.84 166.46 283.09 166.39C282.34 166.33 281.4 166.29 280.28 166.29H278.26V173.07C278.26 174.19 278.29 175.08 278.36 175.74C278.42 176.4 278.54 176.91 278.72 177.28C278.9 177.65 279.14 177.9 279.44 178.02C279.75 178.15 280.14 178.23 280.62 178.26L281.44 178.31V180.62H272.16V180.14C272.51 179.53 272.79 178.95 273 178.39C273.21 177.83 273.38 177.07 273.5 176.11C273.63 175.15 273.71 173.89 273.74 172.34C273.77 170.79 273.79 168.73 273.79 166.16V158.57C273.79 157.32 273.76 156.34 273.72 155.64C273.67 154.94 273.56 154.41 273.38 154.06C273.2 153.71 272.96 153.48 272.64 153.39C272.32 153.29 271.89 153.21 271.34 153.15L270.57 153.1V150.79H291.77C291.83 151.14 291.92 151.58 292.03 152.09C292.14 152.6 292.26 153.15 292.37 153.72C292.47 154.3 292.61 154.86 292.75 155.4C292.9 155.94 293.03 156.43 293.16 156.84H290.94L290.93 156.83Z" fill="white"/>
    <path d="M305.44 180.62V180.14C305.79 179.53 306.08 178.95 306.3 178.39C306.53 177.83 306.69 177.07 306.81 176.11C306.92 175.15 307 173.89 307.05 172.34C307.1 170.79 307.12 168.73 307.12 166.16V156.16C307.12 155.55 307.09 155.05 307.03 154.67C306.97 154.29 306.85 153.99 306.67 153.78C306.5 153.57 306.25 153.43 305.92 153.35C305.6 153.27 305.18 153.2 304.67 153.13L303.85 153.08V150.77H312.98V151.25C312.63 151.79 312.35 152.33 312.14 152.86C311.93 153.39 311.77 154.12 311.66 155.07C311.55 156.02 311.47 157.28 311.42 158.87C311.37 160.46 311.35 162.59 311.35 165.29V174.76C311.35 176.07 311.5 176.96 311.81 177.43C312.11 177.89 312.75 178.18 313.71 178.27L314.53 178.32V180.63H305.45L305.44 180.62Z" fill="white"/>
    <path d="M348.07 174.13C347.91 174.48 347.74 174.96 347.57 175.55C347.39 176.14 347.21 176.75 347.04 177.38C346.86 178 346.69 178.61 346.53 179.21C346.37 179.8 346.26 180.28 346.2 180.63H327.79V180.15C328.14 179.54 328.42 178.96 328.63 178.4C328.84 177.84 329.01 177.08 329.14 176.12C329.27 175.16 329.35 173.9 329.38 172.35C329.41 170.8 329.43 168.74 329.43 166.17V158.58C329.43 157.33 329.41 156.35 329.36 155.65C329.31 154.95 329.2 154.42 329.02 154.07C328.84 153.72 328.59 153.49 328.27 153.4C327.95 153.3 327.52 153.22 326.97 153.16L326.2 153.11V150.8H335.28V151.28C334.96 151.82 334.7 152.36 334.49 152.89C334.28 153.42 334.12 154.15 334.01 155.1C333.9 156.05 333.82 157.31 333.77 158.9C333.72 160.49 333.69 162.62 333.69 165.32V173.11C333.69 174.23 333.81 175.1 334.05 175.73C334.29 176.36 334.59 176.81 334.97 177.1C335.34 177.39 335.76 177.57 336.24 177.63C336.72 177.69 337.2 177.73 337.68 177.73H338.84C339.93 177.73 340.84 177.65 341.56 177.49C342.28 177.33 342.88 177.1 343.36 176.79C343.84 176.49 344.26 176.11 344.61 175.66C344.96 175.21 345.31 174.72 345.67 174.17H348.07V174.13Z" fill="white"/>
    <path d="M387.34 180.62V180.14C387.53 179.53 387.69 178.91 387.8 178.29C387.91 177.66 388 176.88 388.06 175.93C388.12 174.99 388.16 173.78 388.18 172.32C388.2 170.86 388.21 168.96 388.21 166.62V156.33L380.04 175.51C379.56 176.63 379.15 177.55 378.81 178.28C378.47 179 378.13 179.78 377.78 180.61H376.87C376.2 180.61 375.62 180.41 375.14 180.01C374.66 179.61 374.12 178.71 373.51 177.29L368.03 164.5C367.16 162.48 366.4 160.76 365.74 159.33C365.08 157.9 364.57 156.79 364.18 155.99V174.64C364.18 175.31 364.2 175.87 364.25 176.32C364.3 176.77 364.39 177.12 364.54 177.38C364.69 177.64 364.87 177.82 365.09 177.93C365.32 178.04 365.62 178.11 366.01 178.15L367.45 178.29V180.6H359.28V180.12C359.57 179.64 359.8 179.14 359.98 178.63C360.15 178.12 360.29 177.53 360.39 176.88C360.48 176.22 360.55 175.49 360.61 174.69C360.66 173.89 360.69 172.98 360.73 171.95L361.07 162.72C361.07 162.4 361.07 162.04 361.09 161.64C361.1 161.24 361.11 160.85 361.11 160.46C361.11 160.07 361.12 159.71 361.13 159.35C361.15 159 361.15 158.72 361.15 158.53C361.15 157.28 361.12 156.3 361.06 155.6C360.99 154.9 360.88 154.37 360.72 154.02C360.56 153.67 360.31 153.44 359.98 153.35C359.64 153.25 359.21 153.17 358.7 153.11L357.88 153.06V150.75H363.74C364.83 150.75 365.65 150.86 366.19 151.09C366.73 151.32 367.18 151.84 367.53 152.68L377.2 174.65L384.99 156.53C385.47 155.44 385.92 154.39 386.33 153.38C386.75 152.37 387.05 151.5 387.24 150.76H394.07V151.19C393.75 151.74 393.48 152.29 393.28 152.85C393.07 153.41 392.91 154.18 392.8 155.16C392.69 156.14 392.61 157.44 392.56 159.08C392.51 160.71 392.49 162.86 392.49 165.52V174.65C392.49 175.96 392.65 176.86 392.97 177.34C393.29 177.82 393.74 178.09 394.32 178.16L395.76 178.3V180.61H387.35L387.34 180.62Z" fill="white"/>
    <path d="M437.41 171.97C437.41 173.22 437.2 174.4 436.79 175.53C436.37 176.65 435.71 177.64 434.82 178.49C433.92 179.34 432.76 180.01 431.34 180.51C429.91 181 428.19 181.25 426.17 181.25C424.6 181.25 423.23 181.09 422.06 180.77C420.89 180.45 419.65 179.92 418.33 179.19C418.24 178.81 418.14 178.35 418.04 177.82C417.94 177.29 417.84 176.75 417.72 176.19C417.61 175.63 417.49 175.06 417.38 174.48C417.27 173.9 417.16 173.37 417.07 172.89H419.28C420.02 174.4 420.95 175.62 422.09 176.57C423.23 177.52 424.74 177.99 426.63 177.99C428.71 177.99 430.21 177.48 431.12 176.45C432.03 175.42 432.49 174.18 432.49 172.7C432.49 171.71 432.21 170.86 431.65 170.18C431.09 169.49 430.17 168.89 428.89 168.38L423.51 166.26C421.46 165.43 419.91 164.44 418.87 163.31C417.83 162.17 417.31 160.79 417.31 159.15C417.31 157.84 417.57 156.63 418.1 155.52C418.63 154.41 419.38 153.47 420.36 152.68C421.34 151.89 422.53 151.29 423.94 150.85C425.35 150.42 426.92 150.2 428.65 150.2C430.48 150.2 431.95 150.38 433.07 150.75C434.19 151.12 435.12 151.53 435.86 151.97C435.99 152.71 436.15 153.65 436.34 154.78C436.53 155.92 436.76 157.03 437.01 158.12H434.94C434.75 157.51 434.45 156.93 434.05 156.37C433.65 155.81 433.16 155.31 432.58 154.88C432 154.45 431.35 154.1 430.64 153.85C429.92 153.59 429.14 153.47 428.31 153.47C427.19 153.47 426.24 153.61 425.45 153.88C424.66 154.15 424.03 154.52 423.55 154.98C423.07 155.44 422.72 155.97 422.52 156.57C422.31 157.16 422.21 157.78 422.21 158.42C422.21 159.32 422.48 160.06 423 160.66C423.53 161.25 424.42 161.81 425.67 162.32L431.39 164.63C433.38 165.43 434.88 166.47 435.89 167.75C436.9 169.03 437.4 170.44 437.4 171.98L437.41 171.97Z" fill="white"/>
    <path d="M476.15 164.71C476.15 167.11 475.81 169.32 475.12 171.34C474.43 173.36 473.47 175.11 472.24 176.58C471.01 178.05 469.53 179.2 467.81 180.02C466.1 180.84 464.21 181.25 462.16 181.25C460.3 181.25 458.55 180.91 456.92 180.24C455.29 179.57 453.87 178.6 452.67 177.33C451.47 176.07 450.52 174.51 449.81 172.67C449.1 170.83 448.75 168.74 448.75 166.4C448.75 164.06 449.1 161.75 449.78 159.77C450.47 157.78 451.43 156.08 452.67 154.65C453.9 153.22 455.38 152.12 457.09 151.33C458.8 150.55 460.7 150.15 462.78 150.15C464.64 150.15 466.38 150.47 468 151.11C469.62 151.75 471.03 152.68 472.23 153.9C473.43 155.12 474.38 156.64 475.09 158.47C475.79 160.3 476.15 162.38 476.15 164.72V164.71ZM471.25 165.96C471.25 163.68 471.02 161.75 470.55 160.17C470.09 158.58 469.44 157.29 468.6 156.3C467.77 155.31 466.77 154.59 465.6 154.14C464.43 153.69 463.13 153.47 461.68 153.47C460.59 153.47 459.56 153.73 458.6 154.26C457.64 154.79 456.79 155.55 456.06 156.54C455.32 157.53 454.74 158.74 454.3 160.17C453.87 161.6 453.65 163.22 453.65 165.05C453.65 167.36 453.87 169.32 454.32 170.94C454.77 172.56 455.4 173.89 456.22 174.93C457.04 175.97 458.04 176.73 459.22 177.21C460.4 177.69 461.72 177.93 463.16 177.93C464.25 177.93 465.28 177.65 466.24 177.09C467.2 176.53 468.05 175.73 468.78 174.69C469.52 173.65 470.1 172.39 470.54 170.92C470.98 169.45 471.19 167.8 471.19 165.97H471.24L471.25 165.96Z" fill="white"/>
    <path d="M509.36 174.13C509.2 174.48 509.03 174.96 508.86 175.55C508.68 176.14 508.5 176.75 508.33 177.38C508.15 178 507.98 178.61 507.82 179.21C507.66 179.8 507.55 180.28 507.49 180.63H489.08V180.15C489.43 179.54 489.71 178.96 489.92 178.4C490.13 177.84 490.3 177.08 490.43 176.12C490.56 175.16 490.64 173.9 490.67 172.35C490.7 170.8 490.72 168.74 490.72 166.17V158.58C490.72 157.33 490.7 156.35 490.65 155.65C490.6 154.95 490.49 154.42 490.31 154.07C490.13 153.72 489.88 153.49 489.56 153.4C489.24 153.31 488.81 153.22 488.26 153.16L487.49 153.11V150.8H496.57V151.28C496.25 151.82 495.99 152.36 495.78 152.89C495.57 153.42 495.41 154.15 495.3 155.1C495.19 156.05 495.11 157.31 495.06 158.9C495.01 160.49 494.99 162.62 494.99 165.32V173.11C494.99 174.23 495.11 175.1 495.35 175.73C495.59 176.36 495.89 176.81 496.27 177.1C496.64 177.39 497.06 177.57 497.54 177.63C498.02 177.69 498.5 177.73 498.98 177.73H500.13C501.22 177.73 502.13 177.65 502.85 177.49C503.57 177.33 504.17 177.1 504.65 176.79C505.13 176.49 505.55 176.11 505.9 175.66C506.25 175.21 506.6 174.72 506.96 174.17H509.36V174.13Z" fill="white"/>
    <path d="M546.18 151.25C545.83 151.79 545.56 152.32 545.36 152.84C545.17 153.35 545.02 154.07 544.9 155C544.79 155.93 544.71 157.18 544.68 158.75C544.65 160.32 544.63 162.44 544.63 165.09V170.09C544.63 171.69 544.38 173.17 543.89 174.54C543.39 175.9 542.66 177.08 541.7 178.07C540.74 179.06 539.57 179.84 538.21 180.4C536.85 180.96 535.3 181.24 533.57 181.24C531.55 181.24 529.81 180.97 528.35 180.42C526.89 179.88 525.7 179.12 524.77 178.16C523.84 177.2 523.15 176.07 522.7 174.77C522.25 173.47 522.03 172.05 522.03 170.51C522.03 169.58 522.03 168.64 522.05 167.7C522.06 166.76 522.09 165.82 522.12 164.89C522.15 163.86 522.19 162.84 522.22 161.81C522.25 160.79 522.27 159.77 522.27 158.78C522.27 157.5 522.25 156.5 522.22 155.78C522.19 155.06 522.1 154.51 521.95 154.15C521.8 153.78 521.6 153.54 521.33 153.43C521.06 153.32 520.68 153.23 520.2 153.16L519.05 153.02V150.76H528.13V151.24C527.78 151.75 527.5 152.34 527.29 152.99C527.08 153.65 526.93 154.42 526.83 155.32C526.73 156.22 526.67 157.28 526.64 158.52C526.61 159.75 526.59 161.21 526.59 162.87V168.78C526.59 170.48 526.75 171.9 527.07 173.06C527.39 174.21 527.88 175.14 528.53 175.85C529.19 176.56 530.01 177.05 530.98 177.34C531.96 177.63 533.12 177.78 534.47 177.78C536.49 177.78 538.12 177 539.37 175.45C540.62 173.9 541.25 171.68 541.25 168.79V158.55C541.25 157.3 541.22 156.32 541.18 155.62C541.13 154.92 541.02 154.39 540.85 154.04C540.67 153.69 540.42 153.46 540.1 153.37C539.78 153.27 539.34 153.19 538.8 153.13L538.03 153.08V150.77H546.16V151.25H546.18Z" fill="white"/>
    <path d="M582.41 157.5C581.99 156.35 581.37 155.4 580.54 154.66C579.7 153.92 578.52 153.55 576.98 153.55H573.85C573.76 154.13 573.68 154.76 573.61 155.45C573.54 156.14 573.49 156.93 573.44 157.83C573.39 158.73 573.36 159.78 573.35 161C573.33 162.22 573.33 163.65 573.33 165.28V173.07C573.33 174.19 573.36 175.08 573.42 175.74C573.49 176.4 573.6 176.91 573.76 177.28C573.92 177.65 574.15 177.9 574.45 178.02C574.76 178.15 575.15 178.23 575.63 178.26L576.45 178.31V180.62H567.41V180.14C567.76 179.53 568.04 178.95 568.25 178.39C568.46 177.83 568.63 177.07 568.76 176.11C568.89 175.15 568.97 173.89 569 172.34C569.03 170.79 569.05 168.73 569.05 166.16V157.46C569.05 157.01 569.05 156.55 569.03 156.09C569.02 155.63 569 155.17 568.98 154.72C568.97 154.27 568.94 153.89 568.91 153.57H565.98C564.57 153.57 563.4 153.96 562.47 154.75C561.54 155.53 560.74 156.5 560.07 157.66H557.95C558.08 157.18 558.21 156.64 558.33 156.05C558.46 155.46 558.58 154.85 558.72 154.22C558.85 153.6 558.96 152.99 559.06 152.39C559.15 151.8 559.23 151.26 559.3 150.78H583.72C583.78 151.81 583.88 152.94 584.01 154.19C584.14 155.44 584.3 156.53 584.49 157.46L582.42 157.51L582.41 157.5Z" fill="white"/>
    <path d="M597.07 180.62V180.14C597.42 179.53 597.71 178.95 597.93 178.39C598.16 177.83 598.32 177.07 598.44 176.11C598.55 175.15 598.63 173.89 598.68 172.34C598.73 170.79 598.75 168.73 598.75 166.16V156.16C598.75 155.55 598.72 155.05 598.66 154.67C598.59 154.29 598.48 153.99 598.3 153.78C598.13 153.57 597.88 153.43 597.55 153.35C597.23 153.27 596.81 153.2 596.3 153.13L595.48 153.08V150.77H604.62V151.25C604.27 151.79 603.99 152.33 603.78 152.86C603.57 153.39 603.41 154.12 603.3 155.07C603.19 156.02 603.11 157.28 603.06 158.87C603.01 160.46 602.99 162.59 602.99 165.29V174.76C602.99 176.07 603.14 176.96 603.45 177.43C603.76 177.89 604.39 178.18 605.35 178.27L606.17 178.32V180.63H597.09L597.07 180.62Z" fill="white"/>
    <path d="M644.74 164.71C644.74 167.11 644.4 169.32 643.71 171.34C643.02 173.36 642.06 175.11 640.83 176.58C639.6 178.05 638.12 179.2 636.4 180.02C634.69 180.84 632.8 181.25 630.75 181.25C628.89 181.25 627.14 180.91 625.51 180.24C623.88 179.57 622.46 178.6 621.26 177.33C620.06 176.07 619.11 174.51 618.4 172.67C617.69 170.83 617.34 168.74 617.34 166.4C617.34 164.06 617.69 161.75 618.37 159.77C619.06 157.78 620.02 156.08 621.26 154.65C622.49 153.22 623.97 152.12 625.68 151.33C627.39 150.55 629.29 150.15 631.37 150.15C633.23 150.15 634.97 150.47 636.59 151.11C638.21 151.75 639.62 152.68 640.82 153.9C642.02 155.12 642.97 156.64 643.68 158.47C644.38 160.3 644.74 162.38 644.74 164.72V164.71ZM639.84 165.96C639.84 163.68 639.6 161.75 639.14 160.17C638.68 158.58 638.03 157.29 637.19 156.3C636.36 155.31 635.36 154.59 634.19 154.14C633.02 153.69 631.72 153.47 630.27 153.47C629.18 153.47 628.15 153.73 627.19 154.26C626.23 154.79 625.38 155.55 624.65 156.54C623.91 157.53 623.33 158.74 622.89 160.17C622.46 161.6 622.24 163.22 622.24 165.05C622.24 167.36 622.46 169.32 622.91 170.94C623.36 172.56 623.99 173.89 624.81 174.93C625.63 175.97 626.63 176.73 627.81 177.21C628.99 177.69 630.31 177.93 631.75 177.93C632.84 177.93 633.87 177.65 634.83 177.09C635.79 176.53 636.64 175.73 637.37 174.69C638.11 173.65 638.69 172.39 639.13 170.92C639.56 169.45 639.78 167.8 639.78 165.97H639.83L639.84 165.96Z" fill="white"/>
    <path d="M682.28 151.25C681.96 151.79 681.7 152.33 681.49 152.86C681.28 153.39 681.12 154.12 681.01 155.07C680.9 156.02 680.82 157.28 680.77 158.87C680.72 160.46 680.7 162.59 680.7 165.29V173.08C680.7 174.23 680.7 175.47 680.72 176.8C680.74 178.13 680.78 179.4 680.84 180.62H679.64C679.19 180.62 678.79 180.44 678.41 180.09C678.04 179.74 677.66 179.32 677.28 178.84L661.56 158.7C661.56 159.53 661.56 160.42 661.54 161.37C661.52 162.32 661.52 163.3 661.52 164.33V170.39C661.52 172.02 661.53 173.34 661.57 174.33C661.6 175.32 661.7 176.1 661.86 176.66C662.02 177.22 662.26 177.62 662.58 177.84C662.9 178.07 663.33 178.2 663.88 178.23L665.22 178.33V180.64H656.57V180.16C656.92 179.55 657.21 178.97 657.43 178.41C657.66 177.85 657.82 177.09 657.94 176.13C658.05 175.17 658.13 173.91 658.18 172.36C658.23 170.81 658.25 168.75 658.25 166.18V158.59C658.25 157.34 658.22 156.36 658.16 155.66C658.09 154.96 657.98 154.43 657.82 154.08C657.66 153.73 657.41 153.5 657.08 153.41C656.74 153.31 656.32 153.23 655.8 153.17L654.98 153.12V150.81H659.36C659.75 150.81 660.06 150.83 660.32 150.88C660.57 150.93 660.8 151.02 660.99 151.14C661.18 151.27 661.38 151.47 661.59 151.74C661.8 152.01 662.08 152.36 662.43 152.77L677.29 171.81C677.35 171.23 677.39 170.42 677.41 169.36C677.42 168.3 677.43 167.2 677.43 166.04V159.21C677.43 158.06 677.4 157.1 677.34 156.35C677.27 155.6 677.15 155 676.96 154.55C676.77 154.1 676.5 153.78 676.17 153.59C675.83 153.4 675.41 153.27 674.9 153.2L673.6 153.1V150.79H682.3V151.27L682.28 151.25Z" fill="white"/>
    <path d="M713.95 171.97C713.95 173.22 713.74 174.4 713.33 175.53C712.91 176.65 712.25 177.64 711.36 178.49C710.46 179.34 709.3 180.01 707.88 180.51C706.45 181 704.73 181.25 702.71 181.25C701.14 181.25 699.77 181.09 698.6 180.77C697.43 180.45 696.19 179.92 694.87 179.19C694.78 178.81 694.68 178.35 694.58 177.82C694.48 177.29 694.38 176.75 694.26 176.19C694.14 175.63 694.03 175.06 693.92 174.48C693.81 173.9 693.7 173.37 693.61 172.89H695.82C696.56 174.4 697.49 175.62 698.63 176.57C699.77 177.52 701.28 177.99 703.17 177.99C705.25 177.99 706.75 177.48 707.66 176.45C708.57 175.42 709.03 174.18 709.03 172.7C709.03 171.71 708.75 170.86 708.19 170.18C707.63 169.49 706.71 168.89 705.43 168.38L700.04 166.26C697.99 165.43 696.45 164.44 695.4 163.31C694.36 162.17 693.84 160.79 693.84 159.15C693.84 157.84 694.1 156.63 694.63 155.52C695.16 154.41 695.91 153.47 696.89 152.68C697.87 151.89 699.06 151.29 700.47 150.85C701.88 150.42 703.45 150.2 705.18 150.2C707.01 150.2 708.48 150.38 709.6 150.75C710.72 151.12 711.65 151.53 712.39 151.97C712.52 152.71 712.68 153.65 712.87 154.78C713.06 155.92 713.29 157.03 713.54 158.12H711.47C711.28 157.51 710.98 156.93 710.58 156.37C710.18 155.81 709.69 155.31 709.11 154.88C708.53 154.45 707.89 154.1 707.17 153.85C706.45 153.59 705.67 153.47 704.84 153.47C703.72 153.47 702.77 153.61 701.98 153.88C701.19 154.15 700.56 154.52 700.08 154.98C699.6 155.44 699.25 155.97 699.05 156.57C698.84 157.16 698.74 157.78 698.74 158.42C698.74 159.32 699.01 160.06 699.53 160.66C700.06 161.25 700.95 161.81 702.2 162.32L707.92 164.63C709.91 165.43 711.41 166.47 712.42 167.75C713.43 169.03 713.93 170.44 713.93 171.98L713.95 171.97Z" fill="white"/>
    <path d="M268.24 56.3905C267.05 53.1105 265.28 50.4205 262.91 48.3205C260.54 46.2305 257.16 45.1705 252.79 45.1705H243.9C243.63 46.8105 243.4 48.6105 243.22 50.5705C243.04 52.5305 242.88 54.7905 242.74 57.3405C242.6 59.8905 242.51 62.9005 242.47 66.3705C242.42 69.8405 242.4 73.8905 242.4 78.5405V100.7C242.4 103.89 242.49 106.42 242.67 108.29C242.85 110.16 243.17 111.62 243.63 112.67C244.08 113.72 244.74 114.43 245.61 114.79C246.48 115.15 247.59 115.39 248.96 115.47L251.28 115.6V122.17H225.57V120.8C226.57 119.07 227.37 117.41 227.96 115.81C228.55 114.21 229.03 112.05 229.4 109.31C229.76 106.57 229.99 103 230.08 98.5805C230.17 94.1605 230.21 88.3005 230.21 81.0005V56.2505C230.21 54.9705 230.19 53.6705 230.14 52.3505C230.09 51.0305 230.05 49.7305 230.01 48.4505C229.96 47.1705 229.89 46.0805 229.8 45.1705H221.46C217.45 45.1705 214.12 46.2905 211.48 48.5205C208.83 50.7505 206.56 53.5105 204.64 56.7905H198.62C198.98 55.4205 199.35 53.9005 199.71 52.2105C200.07 50.5305 200.44 48.7905 200.8 47.0105C201.16 45.2305 201.48 43.5005 201.76 41.8205C202.03 40.1305 202.26 38.6005 202.44 37.2305H271.91C272.09 40.1505 272.37 43.3905 272.73 46.9405C273.09 50.5005 273.55 53.6005 274.1 56.2405L268.22 56.3705L268.24 56.3905Z" fill="white"/>
    <path d="M286.52 117.83C287.56 117.5 288.33 116.91 288.83 116.08C289.33 115.24 289.58 114.16 289.58 112.82V78.9704C289.58 77.7904 289.31 76.7004 288.77 75.7204C288.23 74.7404 287.48 73.9203 286.52 73.2504C285.81 72.8004 284.8 72.4204 283.46 72.1104C282.12 71.7904 280.9 71.6003 279.79 71.5203V67.8503L299.15 66.6303L299.93 67.4104V112.15C299.93 113.45 300.18 114.52 300.68 115.38C301.17 116.23 301.96 116.87 303.03 117.27C303.84 117.6 304.63 117.87 305.41 118.08C306.18 118.29 307.05 118.43 308.01 118.5V122.17H286.45L286.53 117.83H286.52ZM301.05 44.9904C301.05 47.1004 300.36 48.9503 298.96 50.5303C297.57 52.1103 295.85 52.8904 293.81 52.8904C291.92 52.8904 290.28 52.1404 288.89 50.6304C287.5 49.1304 286.8 47.4104 286.8 45.4804C286.8 43.4404 287.5 41.6604 288.89 40.1404C290.28 38.6204 291.92 37.8604 293.81 37.8604C295.93 37.8604 297.66 38.5704 299.01 40.0004C300.37 41.4304 301.04 43.0904 301.04 44.9804L301.05 44.9904Z" fill="white"/>
    <path d="M584.44 117.83C585.48 117.5 586.25 116.91 586.75 116.08C587.25 115.24 587.5 114.16 587.5 112.82V78.9704C587.5 77.7904 587.23 76.7004 586.69 75.7204C586.15 74.7404 585.4 73.9203 584.44 73.2504C583.73 72.8004 582.72 72.4204 581.38 72.1104C580.04 71.7904 578.82 71.6003 577.71 71.5203V67.8503L597.07 66.6303L597.85 67.4104V112.15C597.85 113.45 598.1 114.52 598.6 115.38C599.09 116.23 599.88 116.87 600.95 117.27C601.76 117.6 602.55 117.87 603.33 118.08C604.1 118.29 604.97 118.43 605.93 118.5V122.17H584.37L584.45 117.83H584.44ZM598.97 44.9904C598.97 47.1004 598.28 48.9503 596.88 50.5303C595.49 52.1103 593.77 52.8904 591.73 52.8904C589.84 52.8904 588.2 52.1404 586.81 50.6304C585.42 49.1304 584.72 47.4104 584.72 45.4804C584.72 43.4404 585.42 41.6604 586.81 40.1404C588.2 38.6204 589.84 37.8604 591.73 37.8604C593.85 37.8604 595.58 38.5704 596.93 40.0004C598.29 41.4304 598.96 43.0904 598.96 44.9804L598.97 44.9904Z" fill="white"/>
    <path d="M348.68 119.78C346.27 120.79 343.99 121.63 341.84 122.31C339.69 122.99 337.06 123.34 333.94 123.34C329.34 123.34 326.1 122.18 324.23 119.86C322.36 117.54 321.42 114.27 321.42 110.04V72.8704H311.51V67.5204H321.64V50.4404H331.77V67.5204H347.52V72.8704H331.88V103.53C331.88 105.83 331.96 107.75 332.13 109.29C332.3 110.83 332.7 112.17 333.33 113.32C333.92 114.4 334.81 115.22 336 115.77C337.19 116.33 338.78 116.61 340.79 116.61C341.71 116.61 343.08 116.53 344.88 116.36C346.68 116.19 347.95 115.98 348.69 115.72V119.78H348.68Z" fill="white"/>
    <path d="M406.11 121.17C404.37 121.8 402.83 122.31 401.52 122.7C400.2 123.09 398.71 123.29 397.04 123.29C394.14 123.29 391.83 122.61 390.11 121.26C388.38 119.9 387.28 117.93 386.8 115.33H386.47C384.06 118 381.47 120.04 378.71 121.45C375.94 122.86 372.62 123.56 368.72 123.56C364.6 123.56 361.22 122.3 358.56 119.78C355.9 117.26 354.58 113.96 354.58 109.87C354.58 107.75 354.88 105.86 355.47 104.2C356.07 102.53 356.96 101.03 358.14 99.6897C359.06 98.5797 360.29 97.5897 361.81 96.7097C363.33 95.8397 364.76 95.1397 366.1 94.6197C367.77 93.9897 371.15 92.8197 376.25 91.1197C381.35 89.4097 384.79 88.0797 386.57 87.1097V81.5997C386.57 81.1197 386.46 80.1897 386.26 78.8197C386.06 77.4497 385.62 76.1497 384.96 74.9197C384.22 73.5497 383.17 72.3497 381.81 71.3297C380.46 70.3097 378.53 69.7997 376.05 69.7997C374.34 69.7997 372.76 70.0897 371.29 70.6597C369.82 71.2297 368.8 71.8397 368.2 72.4697C368.2 73.2097 368.38 74.3097 368.73 75.7497C369.08 77.1997 369.26 78.5297 369.26 79.7597C369.26 81.0597 368.67 82.2497 367.51 83.3197C366.34 84.3897 364.72 84.9297 362.64 84.9297C360.79 84.9297 359.42 84.2697 358.55 82.9497C357.68 81.6297 357.24 80.1597 357.24 78.5197C357.24 76.8797 357.84 75.1797 359.05 73.6197C360.26 72.0597 361.82 70.6697 363.75 69.4497C365.42 68.4097 367.44 67.5297 369.82 66.8097C372.19 66.0797 374.51 65.7197 376.77 65.7197C379.89 65.7197 382.61 65.9297 384.92 66.3597C387.24 66.7897 389.35 67.7097 391.24 69.1197C393.13 70.4897 394.57 72.3497 395.55 74.7097C396.53 77.0697 397.03 80.0997 397.03 83.8097C397.03 89.1197 396.97 93.8197 396.86 97.9197C396.75 102.02 396.69 106.5 396.69 111.36C396.69 112.81 396.94 113.96 397.44 114.81C397.94 115.66 398.71 116.39 399.75 116.98C400.31 117.31 401.19 117.5 402.39 117.54C403.6 117.58 404.83 117.59 406.09 117.59V121.15L406.11 121.17ZM386.69 91.7897C383.54 92.7197 380.77 93.6297 378.4 94.5197C376.03 95.4097 373.82 96.5297 371.78 97.8697C369.92 99.1297 368.46 100.63 367.39 102.36C366.31 104.09 365.78 106.14 365.78 108.52C365.78 111.61 366.59 113.87 368.2 115.33C369.81 116.78 371.86 117.5 374.35 117.5C376.98 117.5 379.3 116.86 381.31 115.57C383.31 114.29 385 112.77 386.37 111.03L386.7 91.7897H386.69Z" fill="white"/>
    <path d="M566.15 56.3905C564.97 53.1105 563.19 50.4205 560.82 48.3205C558.45 46.2305 555.08 45.1705 550.69 45.1705H541.81C541.53 46.8105 541.3 48.6105 541.13 50.5705C540.94 52.5305 540.78 54.7905 540.65 57.3405C540.52 59.8905 540.42 62.9005 540.38 66.3705C540.33 69.8405 540.3 73.8905 540.3 78.5405V100.7C540.3 103.89 540.39 106.42 540.58 108.29C540.76 110.16 541.08 111.62 541.53 112.67C541.99 113.72 542.64 114.43 543.51 114.79C544.38 115.15 545.49 115.39 546.86 115.47L549.18 115.6V122.17H523.47V120.8C524.48 119.07 525.28 117.41 525.87 115.81C526.46 114.21 526.94 112.05 527.31 109.31C527.67 106.57 527.9 103 527.99 98.5805C528.08 94.1605 528.13 88.3005 528.13 81.0005V56.2505C528.13 54.9705 528.1 53.6705 528.06 52.3505C528.01 51.0305 527.97 49.7305 527.93 48.4505C527.88 47.1705 527.81 46.0805 527.73 45.1705H519.39C515.37 45.1705 512.04 46.2905 509.4 48.5205C506.76 50.7505 504.48 53.5105 502.57 56.7905H496.55C496.91 55.4205 497.28 53.9005 497.65 52.2105C498.01 50.5305 498.38 48.7905 498.74 47.0105C499.1 45.2305 499.42 43.5005 499.69 41.8205C499.97 40.1305 500.2 38.6005 500.37 37.2305H569.85C570.03 40.1505 570.31 43.3905 570.67 46.9405C571.03 50.5005 571.49 53.6005 572.04 56.2405L566.15 56.3705V56.3905Z" fill="white"/>
    <path d="M649.31 118.27C650.33 118.2 651.18 118.05 651.84 117.83C652.88 117.5 653.65 116.91 654.15 116.08C654.65 115.24 654.9 114.16 654.9 112.82V84.6098C654.9 80.7098 653.98 77.7098 652.14 75.5998C650.3 73.4898 648.05 72.4298 645.42 72.4298C643.44 72.4298 641.65 72.7398 640.01 73.3498C638.37 73.9598 636.92 74.7098 635.66 75.5998C634.43 76.4498 633.46 77.3698 632.73 78.3498C632 79.3298 631.47 80.1198 631.14 80.7098V112.26C631.14 113.52 631.39 114.56 631.92 115.38C632.43 116.19 633.22 116.83 634.26 117.27C635.04 117.64 635.88 117.92 636.79 118.11C637.69 118.3 638.63 118.43 639.59 118.5V122.17H617.72V117.83C618.77 117.5 619.54 116.91 620.04 116.08C620.54 115.24 620.79 114.16 620.79 112.82V78.9698C620.79 77.7098 620.52 76.5498 619.98 75.4998C619.45 74.4398 618.7 73.5798 617.73 72.9098C617.02 72.4698 616.18 72.1398 615.22 71.9398C614.26 71.7398 613.22 71.5998 612.1 71.5198V67.8498L630.35 66.6298L631.14 67.4098V75.1498H631.42C632.31 74.2598 633.42 73.1998 634.76 71.9498C636.09 70.7098 637.36 69.6998 638.54 68.9198C639.92 68.0298 641.55 67.2898 643.44 66.6898C645.33 66.0898 647.47 65.7998 649.84 65.7998C655.11 65.7998 659.01 67.4398 661.55 70.7198C664.09 73.9998 665.37 78.3698 665.37 83.8298V112.38C665.37 113.68 665.59 114.73 666.04 115.53C666.48 116.33 667.24 116.95 668.32 117.4C669.21 117.77 669.98 118.03 670.63 118.18C671.28 118.33 672.18 118.44 673.33 118.51V122.18H649.31V118.28V118.27Z" fill="white"/>
    <path d="M448.15 118.27C449.17 118.2 450.02 118.05 450.68 117.83C451.72 117.5 452.49 116.91 452.99 116.08C453.49 115.24 453.74 114.16 453.74 112.82V84.6098C453.74 80.7098 452.82 77.7098 450.98 75.5998C449.14 73.4898 446.89 72.4298 444.26 72.4298C442.28 72.4298 440.48 72.7398 438.85 73.3498C437.22 73.9598 435.76 74.7098 434.5 75.5998C433.27 76.4498 432.3 77.3698 431.57 78.3498C430.84 79.3298 430.31 80.1198 429.98 80.7098V112.26C429.98 113.52 430.23 114.56 430.76 115.38C431.27 116.19 432.06 116.83 433.1 117.27C433.88 117.64 434.72 117.92 435.63 118.11C436.53 118.3 437.47 118.43 438.43 118.5V122.17H416.56V117.83C417.61 117.5 418.38 116.91 418.88 116.08C419.38 115.24 419.63 114.16 419.63 112.82V78.9698C419.63 77.7098 419.36 76.5498 418.82 75.4998C418.29 74.4398 417.54 73.5798 416.57 72.9098C415.86 72.4698 415.02 72.1398 414.06 71.9398C413.1 71.7398 412.06 71.5998 410.94 71.5198V67.8498L429.19 66.6298L429.98 67.4098V75.1498H430.26C431.15 74.2598 432.26 73.1998 433.6 71.9498C434.93 70.7098 436.2 69.6998 437.38 68.9198C438.76 68.0298 440.39 67.2898 442.28 66.6898C444.17 66.0898 446.31 65.7998 448.68 65.7998C453.95 65.7998 457.85 67.4398 460.39 70.7198C462.93 73.9998 464.21 78.3698 464.21 83.8298V112.38C464.21 113.68 464.43 114.73 464.88 115.53C465.32 116.33 466.08 116.95 467.16 117.4C468.05 117.77 468.82 118.03 469.47 118.18C470.12 118.33 471.02 118.44 472.17 118.51V122.18H448.15V118.28V118.27Z" fill="white"/>
    <path d="M713.95 119.78C711.53 120.79 709.25 121.63 707.1 122.31C704.95 122.99 702.31 123.34 699.2 123.34C694.61 123.34 691.36 122.18 689.49 119.86C687.62 117.54 686.69 114.27 686.69 110.04V72.8704H676.78V67.5204H686.91V50.4404H697.04V67.5204H712.79V72.8704H697.16V103.53C697.16 105.83 697.24 107.75 697.4 109.29C697.57 110.83 697.97 112.17 698.6 113.32C699.19 114.4 700.09 115.22 701.27 115.77C702.46 116.33 704.06 116.61 706.06 116.61C706.99 116.61 708.35 116.53 710.15 116.36C711.95 116.19 713.22 115.98 713.97 115.72V119.78H713.95Z" fill="white"/>
    </svg>
    