<svg width="761" height="233" viewBox="0 0 761 233" fill="none" xmlns="http://www.w3.org/2000/svg">
    <g clip-path="url(#clip0_91_176)">
    <path d="M151.41 34.85V0L86.18 36.92L21.19 0V34.77L0 22.77V210.11L21.19 198.11V232.88L86.09 195.88L151.4 232.88V198.03L172.51 210.03V22.85L151.4 34.85H151.41ZM8.28 195.86V37L21.19 44.28V188.57L8.28 195.85V195.86ZM143.13 183.86L99.01 158.86V74.01L133.94 54.22V44.7L90.73 69.2V163.65L143.13 193.37V218.62L94.45 191.05L86.09 186.33L77.73 191.13H77.65L29.47 218.61V49.01L73.51 74.01V158.86L38.66 178.65V188.17L81.79 163.67V69.22L29.47 39.5V14.24L77.73 41.64L86.17 46.44L94.53 41.72L143.12 14.24V183.86H143.13ZM164.24 195.86L151.41 188.58V44.29L164.24 37.01V195.87V195.86Z" fill="#B69D75"/>
    <path d="M267.53 175.99C267.15 176.19 266.81 176.43 266.5 176.71C266.2 176.98 265.9 177.32 265.6 177.73C265.31 178.14 264.99 178.61 264.65 179.14C264.31 179.67 263.91 180.29 263.47 181.01C262.92 181.9 262.3 182.81 261.6 183.73C260.9 184.66 260.19 185.51 259.47 186.3C260.16 187.15 260.75 187.83 261.24 188.33C261.74 188.82 262.19 189.2 262.6 189.46C263.01 189.72 263.42 189.89 263.83 189.97C264.24 190.06 264.72 190.12 265.26 190.15L266.75 190.25V192.51H258.91C258.43 192.03 257.95 191.5 257.47 190.92C256.99 190.34 256.62 189.84 256.34 189.43C255.31 190.42 254.21 191.29 253.03 192.04C251.85 192.79 250.51 193.17 249.01 193.17C247.4 193.17 245.99 192.92 244.76 192.4C243.53 191.89 242.5 191.22 241.66 190.4C240.82 189.58 240.19 188.65 239.76 187.61C239.33 186.57 239.12 185.5 239.12 184.41C239.12 182.12 239.7 180.15 240.86 178.49C242.02 176.83 243.71 175.48 245.93 174.42C245.01 172.98 244.29 171.77 243.78 170.78C243.27 169.79 243.01 168.73 243.01 167.61C243.01 165.25 243.77 163.4 245.29 162.05C246.81 160.7 248.85 160.03 251.41 160.03C252.13 160.03 252.87 160.16 253.64 160.42C254.41 160.67 255.11 161.06 255.74 161.57C256.37 162.08 256.89 162.72 257.28 163.47C257.68 164.22 257.87 165.08 257.87 166.04C257.87 167.17 257.69 168.17 257.33 169.04C256.97 169.91 256.5 170.7 255.9 171.4C255.3 172.1 254.6 172.74 253.8 173.32C252.99 173.9 252.17 174.45 251.31 174.96C251.58 175.44 252 176.09 252.57 176.91C253.14 177.73 253.74 178.6 254.39 179.53C255.04 180.45 255.67 181.34 256.28 182.2C256.89 183.06 257.41 183.74 257.82 184.25C258.91 182.95 259.72 181.87 260.25 181.02C260.78 180.17 261.05 179.29 261.05 178.4C261.05 177.34 260.48 176.77 259.36 176.71L257.87 176.55V174.4H267.5V175.99H267.53ZM254.78 187.39C254.4 186.95 253.87 186.25 253.17 185.29C252.47 184.33 251.73 183.32 250.96 182.24C250.19 181.16 249.48 180.15 248.83 179.19C248.18 178.23 247.74 177.55 247.5 177.14C246.44 177.65 245.55 178.4 244.84 179.37C244.12 180.34 243.76 181.55 243.76 182.98C243.76 185.06 244.35 186.64 245.53 187.69C246.71 188.75 248.37 189.28 250.52 189.28C251.34 189.28 252.09 189.1 252.75 188.74C253.42 188.38 254.09 187.93 254.77 187.38L254.78 187.39ZM254.32 166.69C254.32 165.6 253.99 164.7 253.32 164C252.65 163.3 251.77 162.95 250.68 162.95C249.69 162.95 248.89 163.29 248.27 163.98C247.65 164.66 247.34 165.52 247.34 166.54C247.34 167.56 247.55 168.47 247.98 169.36C248.41 170.25 249.01 171.29 249.8 172.48C250.35 172.1 250.89 171.74 251.44 171.38C251.99 171.02 252.46 170.62 252.87 170.18C253.28 169.74 253.62 169.23 253.87 168.67C254.13 168.1 254.26 167.43 254.26 166.65L254.31 166.7L254.32 166.69Z" fill="black"/>
    <path d="M310.07 167.15C309.73 166.54 309.37 166.02 308.97 165.59C308.58 165.16 308.07 164.82 307.44 164.56C306.8 164.3 306.01 164.12 305.06 164C304.1 163.88 302.91 163.82 301.47 163.82C300.31 163.82 299.39 163.84 298.7 163.9C298.02 163.95 297.49 163.98 297.11 163.98C296.94 165.18 296.8 166.65 296.7 168.41C296.6 170.17 296.54 172.13 296.54 174.28H300.84C301.66 174.28 302.32 174.25 302.84 174.18C303.36 174.11 303.77 174.02 304.07 173.9C304.38 173.78 304.61 173.62 304.76 173.41C304.92 173.21 305.05 172.95 305.15 172.64H306.84C306.87 173.05 306.91 173.61 306.97 174.3C307.02 175 307.08 175.72 307.15 176.45C307.21 177.18 307.29 177.88 307.38 178.52C307.46 179.17 307.54 179.65 307.61 179.95H305.56C305.39 179.41 305.16 178.95 304.87 178.59C304.58 178.23 304.18 177.95 303.66 177.74C303.15 177.53 302.49 177.4 301.69 177.33C300.89 177.26 299.89 177.23 298.69 177.23H296.54V184.45C296.54 185.65 296.57 186.59 296.64 187.29C296.71 187.99 296.84 188.54 297.03 188.93C297.22 189.32 297.47 189.59 297.8 189.72C298.13 189.86 298.54 189.94 299.06 189.97L299.93 190.02V192.48H290.04V191.97C290.42 191.32 290.72 190.7 290.94 190.1C291.16 189.5 291.34 188.69 291.48 187.67C291.62 186.64 291.7 185.31 291.73 183.65C291.76 181.99 291.78 179.8 291.78 177.07V168.98C291.78 167.65 291.75 166.61 291.7 165.85C291.65 165.1 291.53 164.54 291.34 164.16C291.15 163.78 290.89 163.55 290.55 163.44C290.21 163.34 289.75 163.25 289.17 163.18L288.35 163.13V160.67H310.95C311.01 161.05 311.11 161.51 311.23 162.05C311.35 162.6 311.47 163.18 311.59 163.79C311.7 164.41 311.84 165 311.99 165.58C312.15 166.16 312.29 166.67 312.43 167.12H310.07V167.15Z" fill="black"/>
    <path d="M325.54 192.51V192C325.92 191.35 326.23 190.73 326.46 190.13C326.7 189.53 326.88 188.72 327 187.7C327.12 186.67 327.21 185.34 327.25 183.68C327.3 182.02 327.33 179.83 327.33 177.1V166.44C327.33 165.79 327.3 165.26 327.23 164.85C327.16 164.44 327.03 164.12 326.85 163.9C326.66 163.68 326.4 163.52 326.05 163.44C325.71 163.36 325.26 163.28 324.72 163.21L323.85 163.16V160.7H333.59V161.21C333.21 161.79 332.91 162.36 332.69 162.93C332.47 163.49 332.29 164.28 332.18 165.29C332.06 166.3 331.97 167.65 331.92 169.34C331.87 171.03 331.84 173.31 331.84 176.18V186.27C331.84 187.67 332 188.62 332.33 189.11C332.65 189.61 333.33 189.91 334.35 190.01L335.22 190.06V192.52H325.54V192.51Z" fill="black"/>
    <path d="M370.98 185.59C370.81 185.97 370.63 186.47 370.44 187.1C370.25 187.73 370.06 188.38 369.87 189.05C369.68 189.72 369.5 190.36 369.33 191C369.16 191.63 369.04 192.14 368.97 192.51H349.35V192C349.73 191.35 350.03 190.73 350.25 190.13C350.47 189.53 350.65 188.72 350.79 187.7C350.93 186.67 351.01 185.34 351.04 183.68C351.07 182.02 351.09 179.83 351.09 177.1V169.01C351.09 167.68 351.07 166.64 351.01 165.88C350.96 165.13 350.84 164.57 350.65 164.19C350.46 163.81 350.2 163.58 349.85 163.47C349.51 163.37 349.05 163.28 348.47 163.21L347.65 163.16V160.7H357.33V161.21C356.99 161.79 356.71 162.36 356.49 162.93C356.27 163.49 356.1 164.28 355.98 165.29C355.86 166.3 355.77 167.65 355.72 169.34C355.67 171.03 355.64 173.31 355.64 176.18V184.48C355.64 185.68 355.77 186.61 356.03 187.27C356.28 187.94 356.61 188.42 357.01 188.73C357.4 189.04 357.86 189.23 358.37 189.3C358.88 189.37 359.39 189.4 359.91 189.4H361.14C362.3 189.4 363.27 189.32 364.04 189.14C364.81 188.97 365.45 188.72 365.96 188.4C366.47 188.08 366.92 187.67 367.29 187.2C367.67 186.72 368.04 186.19 368.42 185.61H370.98V185.59Z" fill="black"/>
    <path d="M412.83 192.51V192C413.03 191.35 413.2 190.69 413.32 190.03C413.43 189.36 413.53 188.53 413.6 187.52C413.66 186.51 413.71 185.23 413.73 183.68C413.75 182.13 413.76 180.1 413.76 177.61V166.65L405.05 187.09C404.53 188.29 404.1 189.27 403.74 190.04C403.38 190.81 403.01 191.64 402.64 192.52H401.66C400.94 192.52 400.33 192.31 399.81 191.88C399.3 191.45 398.72 190.49 398.07 188.99L392.23 175.36C391.3 173.21 390.49 171.37 389.79 169.85C389.09 168.33 388.54 167.14 388.13 166.29V186.17C388.13 186.89 388.15 187.49 388.21 187.96C388.26 188.44 388.36 188.82 388.51 189.09C388.67 189.36 388.86 189.56 389.1 189.68C389.34 189.8 389.67 189.88 390.08 189.91L391.62 190.06V192.52H382.91V192.01C383.22 191.5 383.47 190.97 383.66 190.42C383.85 189.87 383.99 189.25 384.1 188.55C384.2 187.85 384.28 187.07 384.33 186.22C384.38 185.37 384.42 184.39 384.45 183.3L384.81 173.46C384.81 173.12 384.81 172.74 384.84 172.31C384.85 171.88 384.86 171.46 384.86 171.05C384.86 170.64 384.87 170.25 384.88 169.87C384.9 169.49 384.91 169.2 384.91 169C384.91 167.67 384.88 166.63 384.81 165.87C384.74 165.12 384.62 164.56 384.45 164.18C384.28 163.8 384.02 163.57 383.66 163.46C383.3 163.36 382.84 163.27 382.3 163.2L381.43 163.15V160.69H387.68C388.84 160.69 389.72 160.81 390.3 161.05C390.88 161.29 391.36 161.85 391.73 162.74L402.03 186.15L410.33 166.84C410.84 165.68 411.32 164.56 411.76 163.48C412.21 162.4 412.53 161.47 412.74 160.69H420.02V161.15C419.68 161.73 419.4 162.32 419.17 162.92C418.95 163.52 418.77 164.34 418.66 165.38C418.54 166.42 418.46 167.81 418.4 169.56C418.35 171.3 418.33 173.59 418.33 176.43V186.16C418.33 187.56 418.5 188.52 418.84 189.03C419.19 189.54 419.66 189.83 420.28 189.9L421.82 190.05V192.51H412.85H412.83Z" fill="black"/>
    <path d="M466.21 183.29C466.21 184.62 465.99 185.88 465.55 187.08C465.1 188.28 464.4 189.33 463.45 190.23C462.49 191.14 461.26 191.85 459.74 192.38C458.22 192.91 456.38 193.17 454.23 193.17C452.56 193.17 451.1 193 449.85 192.66C448.6 192.32 447.28 191.76 445.88 190.97C445.78 190.56 445.67 190.07 445.57 189.51C445.46 188.95 445.36 188.37 445.23 187.77C445.11 187.17 444.99 186.56 444.87 185.95C444.75 185.33 444.64 184.77 444.54 184.26H446.9C447.69 185.87 448.68 187.17 449.9 188.18C451.11 189.19 452.73 189.69 454.74 189.69C456.96 189.69 458.55 189.14 459.53 188.05C460.51 186.96 460.99 185.63 460.99 184.05C460.99 182.99 460.69 182.09 460.09 181.36C459.49 180.62 458.51 179.98 457.14 179.44L451.4 177.18C449.21 176.29 447.57 175.24 446.46 174.03C445.35 172.82 444.79 171.34 444.79 169.6C444.79 168.2 445.07 166.91 445.64 165.73C446.21 164.55 447.01 163.55 448.05 162.71C449.09 161.87 450.37 161.22 451.87 160.76C453.37 160.3 455.05 160.07 456.89 160.07C458.84 160.07 460.41 160.27 461.6 160.66C462.8 161.05 463.79 161.49 464.57 161.97C464.7 162.76 464.87 163.76 465.08 164.97C465.28 166.18 465.52 167.37 465.8 168.53H463.6C463.4 167.88 463.08 167.26 462.65 166.66C462.22 166.06 461.7 165.53 461.08 165.07C460.46 164.61 459.77 164.24 459.01 163.97C458.24 163.7 457.41 163.56 456.52 163.56C455.32 163.56 454.31 163.7 453.47 164C452.63 164.29 451.96 164.68 451.44 165.18C450.93 165.68 450.56 166.24 450.34 166.87C450.12 167.5 450 168.16 450 168.84C450 169.8 450.29 170.59 450.85 171.22C451.41 171.85 452.37 172.44 453.7 172.99L459.79 175.45C461.91 176.31 463.51 177.41 464.58 178.78C465.66 180.15 466.19 181.65 466.19 183.29H466.21Z" fill="black"/>
    <path d="M507.49 175.55C507.49 178.11 507.12 180.47 506.39 182.62C505.65 184.77 504.63 186.64 503.32 188.21C502 189.78 500.43 191 498.6 191.87C496.77 192.74 494.77 193.18 492.58 193.18C490.6 193.18 488.74 192.82 487 192.1C485.26 191.38 483.75 190.35 482.47 189C481.19 187.65 480.17 186 479.42 184.03C478.66 182.07 478.29 179.84 478.29 177.34C478.29 174.84 478.66 172.39 479.39 170.27C480.13 168.15 481.15 166.33 482.47 164.81C483.79 163.29 485.36 162.11 487.18 161.27C489.01 160.44 491.03 160.02 493.25 160.02C495.23 160.02 497.09 160.36 498.81 161.04C500.54 161.73 502.04 162.71 503.32 164.01C504.6 165.31 505.62 166.93 506.37 168.88C507.12 170.83 507.49 173.05 507.49 175.54V175.55ZM502.27 176.89C502.27 174.46 502.02 172.41 501.52 170.71C501.03 169.02 500.33 167.64 499.44 166.58C498.55 165.52 497.49 164.75 496.24 164.28C494.99 163.8 493.6 163.56 492.07 163.56C490.91 163.56 489.81 163.84 488.79 164.4C487.77 164.96 486.86 165.77 486.08 166.83C485.29 167.89 484.67 169.18 484.21 170.7C483.75 172.22 483.52 173.95 483.52 175.9C483.52 178.36 483.76 180.45 484.24 182.18C484.72 183.91 485.4 185.32 486.27 186.43C487.14 187.54 488.21 188.35 489.47 188.86C490.73 189.37 492.13 189.63 493.67 189.63C494.83 189.63 495.93 189.33 496.95 188.73C497.97 188.13 498.88 187.28 499.66 186.17C500.45 185.06 501.07 183.72 501.53 182.15C501.99 180.58 502.22 178.82 502.22 176.87H502.27V176.89Z" fill="black"/>
    <path d="M542.89 185.59C542.72 185.97 542.54 186.47 542.35 187.1C542.16 187.73 541.97 188.38 541.78 189.05C541.59 189.72 541.41 190.36 541.24 191C541.07 191.63 540.95 192.14 540.88 192.51H521.26V192C521.64 191.35 521.94 190.73 522.16 190.13C522.38 189.53 522.56 188.72 522.7 187.7C522.84 186.67 522.92 185.34 522.96 183.68C522.99 182.02 523.01 179.83 523.01 177.1V169.01C523.01 167.68 522.99 166.64 522.93 165.88C522.88 165.13 522.75 164.57 522.57 164.19C522.38 163.81 522.11 163.58 521.77 163.47C521.43 163.36 520.97 163.28 520.39 163.21L519.57 163.16V160.7H529.25V161.21C528.91 161.79 528.63 162.36 528.4 162.93C528.18 163.49 528.01 164.28 527.89 165.29C527.77 166.3 527.68 167.65 527.63 169.34C527.58 171.03 527.55 173.31 527.55 176.18V184.48C527.55 185.68 527.68 186.61 527.94 187.27C528.2 187.94 528.52 188.42 528.92 188.73C529.31 189.04 529.77 189.23 530.28 189.3C530.79 189.37 531.31 189.4 531.82 189.4H533.05C534.21 189.4 535.18 189.32 535.95 189.14C536.72 188.97 537.36 188.72 537.87 188.4C538.38 188.08 538.83 187.67 539.2 187.2C539.58 186.72 539.95 186.19 540.33 185.61H542.89V185.59Z" fill="black"/>
    <path d="M582.13 161.21C581.75 161.79 581.47 162.35 581.26 162.9C581.05 163.45 580.89 164.21 580.77 165.2C580.65 166.19 580.57 167.52 580.54 169.2C580.51 170.87 580.49 173.13 580.49 175.96V181.29C580.49 183 580.22 184.58 579.7 186.03C579.17 187.48 578.39 188.74 577.37 189.8C576.34 190.86 575.1 191.69 573.65 192.28C572.2 192.87 570.55 193.18 568.71 193.18C566.56 193.18 564.71 192.89 563.15 192.31C561.59 191.73 560.32 190.93 559.33 189.9C558.34 188.88 557.6 187.67 557.13 186.29C556.65 184.91 556.41 183.39 556.41 181.75C556.41 180.76 556.41 179.76 556.43 178.75C556.45 177.75 556.47 176.74 556.51 175.75C556.54 174.66 556.58 173.56 556.62 172.47C556.65 171.38 556.67 170.3 556.67 169.24C556.67 167.87 556.65 166.81 556.62 166.04C556.58 165.27 556.49 164.69 556.33 164.3C556.17 163.91 555.95 163.65 555.66 163.53C555.37 163.41 554.97 163.31 554.45 163.25L553.22 163.1V160.69H562.9V161.2C562.52 161.75 562.22 162.37 562 163.07C561.77 163.77 561.61 164.6 561.51 165.56C561.41 166.52 561.34 167.65 561.3 168.97C561.27 170.29 561.25 171.83 561.25 173.61V179.91C561.25 181.72 561.42 183.24 561.77 184.47C562.11 185.7 562.63 186.69 563.33 187.44C564.03 188.19 564.9 188.72 565.94 189.03C566.98 189.34 568.22 189.49 569.66 189.49C571.81 189.49 573.55 188.66 574.88 187C576.21 185.34 576.88 182.98 576.88 179.9V168.99C576.88 167.66 576.85 166.62 576.8 165.86C576.75 165.11 576.63 164.55 576.44 164.17C576.25 163.79 575.98 163.56 575.64 163.45C575.29 163.35 574.83 163.26 574.25 163.19L573.43 163.14V160.68H582.09V161.19L582.13 161.21Z" fill="black"/>
    <path d="M620.75 167.87C620.31 166.64 619.64 165.63 618.75 164.85C617.86 164.06 616.6 163.67 614.96 163.67H611.63C611.53 164.28 611.44 164.96 611.38 165.69C611.31 166.42 611.25 167.27 611.2 168.22C611.15 169.18 611.11 170.3 611.1 171.6C611.08 172.9 611.08 174.42 611.08 176.16V184.46C611.08 185.66 611.11 186.6 611.18 187.3C611.25 188 611.37 188.55 611.54 188.94C611.71 189.33 611.96 189.6 612.28 189.73C612.61 189.87 613.03 189.95 613.54 189.98L614.41 190.03V192.49H604.78V191.98C605.16 191.33 605.46 190.71 605.68 190.11C605.9 189.51 606.08 188.7 606.22 187.68C606.35 186.65 606.44 185.32 606.47 183.66C606.51 182 606.52 179.81 606.52 177.08V167.81C606.52 167.33 606.52 166.84 606.5 166.35C606.48 165.85 606.47 165.37 606.45 164.89C606.44 164.41 606.41 164 606.37 163.66H603.24C601.74 163.66 600.49 164.08 599.5 164.92C598.5 165.76 597.65 166.79 596.94 168.02H594.68C594.81 167.51 594.95 166.93 595.09 166.3C595.23 165.67 595.36 165.02 595.5 164.35C595.64 163.68 595.76 163.04 595.86 162.4C595.96 161.77 596.05 161.2 596.12 160.68H622.15C622.21 161.77 622.32 162.99 622.45 164.32C622.59 165.65 622.76 166.81 622.96 167.8L620.76 167.85L620.75 167.87Z" fill="black"/>
    <path d="M636.37 192.51V192C636.75 191.35 637.06 190.73 637.29 190.13C637.53 189.53 637.71 188.72 637.83 187.7C637.95 186.67 638.03 185.34 638.09 183.68C638.14 182.02 638.16 179.83 638.16 177.1V166.44C638.16 165.79 638.13 165.26 638.06 164.85C637.99 164.44 637.86 164.12 637.67 163.9C637.48 163.68 637.22 163.52 636.87 163.44C636.53 163.36 636.08 163.28 635.54 163.21L634.67 163.16V160.7H644.41V161.21C644.03 161.79 643.73 162.36 643.51 162.93C643.28 163.49 643.11 164.28 642.99 165.29C642.87 166.3 642.79 167.65 642.74 169.34C642.69 171.03 642.66 173.31 642.66 176.18V186.27C642.66 187.67 642.82 188.62 643.15 189.11C643.48 189.61 644.15 189.91 645.17 190.01L646.04 190.06V192.52H636.36L636.37 192.51Z" fill="black"/>
    <path d="M687.18 175.55C687.18 178.11 686.82 180.47 686.08 182.62C685.34 184.77 684.32 186.64 683.01 188.21C681.69 189.78 680.12 191 678.29 191.87C676.46 192.74 674.46 193.18 672.27 193.18C670.29 193.18 668.43 192.82 666.69 192.1C664.95 191.38 663.44 190.35 662.16 189C660.88 187.65 659.86 186 659.11 184.03C658.35 182.07 657.98 179.84 657.98 177.34C657.98 174.84 658.35 172.39 659.08 170.27C659.82 168.15 660.84 166.33 662.16 164.81C663.48 163.29 665.05 162.11 666.87 161.27C668.7 160.44 670.72 160.02 672.94 160.02C674.92 160.02 676.78 160.36 678.5 161.04C680.23 161.73 681.73 162.71 683.01 164.01C684.29 165.31 685.31 166.93 686.06 168.88C686.81 170.83 687.19 173.05 687.19 175.54L687.18 175.55ZM681.96 176.89C681.96 174.46 681.71 172.41 681.21 170.71C680.71 169.02 680.02 167.64 679.13 166.58C678.24 165.52 677.18 164.75 675.93 164.28C674.68 163.8 673.29 163.56 671.76 163.56C670.6 163.56 669.5 163.84 668.48 164.4C667.46 164.96 666.55 165.77 665.77 166.83C664.98 167.89 664.36 169.18 663.9 170.7C663.44 172.22 663.21 173.95 663.21 175.9C663.21 178.36 663.44 180.45 663.93 182.18C664.41 183.91 665.09 185.32 665.96 186.43C666.83 187.54 667.9 188.35 669.16 188.86C670.42 189.37 671.82 189.63 673.36 189.63C674.52 189.63 675.62 189.33 676.64 188.73C677.66 188.13 678.57 187.28 679.35 186.17C680.14 185.06 680.76 183.72 681.22 182.15C681.68 180.58 681.91 178.82 681.91 176.87H681.97L681.96 176.89Z" fill="black"/>
    <path d="M727.18 161.21C726.84 161.79 726.56 162.36 726.34 162.93C726.12 163.49 725.94 164.28 725.83 165.29C725.71 166.3 725.62 167.65 725.57 169.34C725.52 171.03 725.5 173.31 725.5 176.18V184.48C725.5 185.71 725.5 187.03 725.52 188.45C725.54 189.87 725.58 191.22 725.65 192.52H724.37C723.89 192.52 723.46 192.33 723.06 191.96C722.67 191.58 722.27 191.14 721.86 190.63L705.1 169.16C705.1 170.05 705.1 171 705.08 172C705.06 173.01 705.06 174.06 705.06 175.15V181.61C705.06 183.35 705.07 184.75 705.11 185.81C705.14 186.87 705.25 187.7 705.42 188.29C705.59 188.89 705.85 189.31 706.19 189.55C706.53 189.79 706.99 189.93 707.57 189.96L709 190.06V192.52H699.78V192.01C700.16 191.36 700.47 190.74 700.7 190.14C700.94 189.54 701.12 188.73 701.24 187.71C701.36 186.68 701.44 185.35 701.49 183.69C701.54 182.03 701.57 179.84 701.57 177.11V169.02C701.57 167.69 701.54 166.65 701.47 165.89C701.4 165.14 701.28 164.58 701.11 164.2C700.94 163.82 700.68 163.59 700.32 163.48C699.96 163.38 699.51 163.29 698.96 163.22L698.09 163.17V160.71H702.75C703.16 160.71 703.5 160.73 703.78 160.79C704.05 160.84 704.29 160.93 704.5 161.07C704.7 161.21 704.92 161.42 705.14 161.71C705.36 162 705.66 162.37 706.04 162.81L721.88 183.1C721.94 182.48 721.99 181.61 722 180.49C722.02 179.36 722.03 178.19 722.03 176.96V169.69C722.03 168.46 722 167.44 721.93 166.64C721.86 165.84 721.72 165.2 721.52 164.72C721.32 164.24 721.03 163.9 720.67 163.7C720.31 163.5 719.86 163.36 719.31 163.29L717.92 163.19V160.73H727.19V161.24L727.18 161.21Z" fill="black"/>
    <path d="M760.94 183.29C760.94 184.62 760.72 185.88 760.27 187.08C759.83 188.28 759.12 189.33 758.17 190.23C757.21 191.14 755.98 191.85 754.46 192.38C752.94 192.91 751.1 193.17 748.95 193.17C747.28 193.17 745.82 193 744.57 192.66C743.32 192.32 742 191.76 740.6 190.97C740.5 190.56 740.4 190.07 740.3 189.51C740.19 188.95 740.08 188.37 739.96 187.77C739.84 187.17 739.72 186.56 739.6 185.95C739.48 185.33 739.37 184.77 739.27 184.26H741.63C742.42 185.87 743.41 187.17 744.63 188.18C745.84 189.19 747.46 189.69 749.47 189.69C751.69 189.69 753.28 189.14 754.26 188.05C755.24 186.96 755.72 185.63 755.72 184.05C755.72 182.99 755.42 182.09 754.82 181.36C754.22 180.62 753.24 179.98 751.87 179.44L746.13 177.18C743.94 176.29 742.3 175.24 741.19 174.03C740.08 172.82 739.52 171.34 739.52 169.6C739.52 168.2 739.8 166.91 740.36 165.73C740.93 164.55 741.73 163.55 742.77 162.71C743.81 161.87 745.09 161.22 746.59 160.76C748.09 160.3 749.77 160.07 751.61 160.07C753.56 160.07 755.13 160.27 756.32 160.66C757.52 161.05 758.51 161.49 759.29 161.97C759.43 162.76 759.6 163.76 759.8 164.97C760 166.18 760.25 167.37 760.52 168.53H758.32C758.11 167.88 757.8 167.26 757.37 166.66C756.94 166.06 756.42 165.53 755.8 165.07C755.19 164.61 754.49 164.24 753.73 163.97C752.96 163.7 752.13 163.56 751.24 163.56C750.04 163.56 749.03 163.7 748.19 164C747.35 164.29 746.68 164.68 746.16 165.18C745.65 165.68 745.28 166.24 745.06 166.87C744.84 167.5 744.73 168.16 744.73 168.84C744.73 169.8 745.02 170.59 745.58 171.22C746.15 171.85 747.1 172.44 748.43 172.99L754.52 175.45C756.64 176.31 758.24 177.41 759.31 178.78C760.39 180.15 760.92 181.65 760.92 183.29H760.94Z" fill="black"/>
    <path d="M285.89 60.1004C284.63 56.6004 282.73 53.7404 280.21 51.5004C277.68 49.2704 274.09 48.1504 269.42 48.1504H259.94C259.65 49.9004 259.4 51.8204 259.21 53.9104C259.02 56.0004 258.85 58.4104 258.7 61.1204C258.56 63.8404 258.46 67.0504 258.41 70.7404C258.36 74.4304 258.34 78.7504 258.34 83.7104V107.33C258.34 110.73 258.43 113.43 258.63 115.42C258.82 117.41 259.16 118.97 259.65 120.09C260.13 121.21 260.84 121.96 261.76 122.35C262.68 122.74 263.88 122.98 265.33 123.08L267.81 123.22V130.22H240.41V128.76C241.48 126.92 242.33 125.14 242.96 123.44C243.59 121.74 244.1 119.43 244.49 116.51C244.88 113.59 245.12 109.78 245.22 105.07C245.31 100.35 245.36 94.1104 245.36 86.3404V59.9604C245.36 58.6004 245.34 57.2104 245.29 55.8104C245.24 54.4004 245.19 53.0204 245.15 51.6504C245.1 50.2904 245.02 49.1304 244.93 48.1504H236.04C231.77 48.1504 228.22 49.3404 225.4 51.7204C222.58 54.1004 220.15 57.0404 218.11 60.5404H211.7C212.09 59.0804 212.48 57.4604 212.87 55.6604C213.26 53.8604 213.65 52.0204 214.04 50.1204C214.43 48.2304 214.77 46.3804 215.06 44.5804C215.35 42.7804 215.59 41.1504 215.79 39.6904H289.84C290.03 42.8004 290.33 46.2504 290.72 50.0404C291.11 53.8304 291.59 57.1404 292.18 59.9504L285.91 60.0904L285.89 60.1004Z" fill="black"/>
    <path d="M305.38 125.58C306.49 125.22 307.31 124.6 307.84 123.72C308.38 122.83 308.64 121.67 308.64 120.25V84.1703C308.64 82.9104 308.36 81.7503 307.78 80.7003C307.21 79.6603 306.41 78.7803 305.38 78.0704C304.63 77.5904 303.54 77.1904 302.12 76.8604C300.69 76.5204 299.39 76.3204 298.2 76.2403V72.3304L318.84 71.0303L319.67 71.8604V119.55C319.67 120.93 319.94 122.08 320.47 122.99C321 123.9 321.83 124.57 322.97 125.01C323.83 125.37 324.68 125.65 325.5 125.87C326.32 126.09 327.25 126.24 328.27 126.32V130.24H305.29L305.38 125.61V125.58ZM320.86 47.9504C320.86 50.2004 320.12 52.1703 318.64 53.8503C317.16 55.5303 315.33 56.3703 313.15 56.3703C311.13 56.3703 309.38 55.5704 307.9 53.9704C306.41 52.3704 305.67 50.5403 305.67 48.4804C305.67 46.3104 306.41 44.4104 307.9 42.7904C309.38 41.1704 311.13 40.3604 313.15 40.3604C315.4 40.3604 317.25 41.1204 318.69 42.6404C320.13 44.1604 320.86 45.9304 320.86 47.9504Z" fill="black"/>
    <path d="M622.91 125.58C624.02 125.22 624.84 124.6 625.37 123.72C625.91 122.83 626.17 121.67 626.17 120.25V84.1703C626.17 82.9104 625.89 81.7503 625.31 80.7003C624.74 79.6603 623.94 78.7803 622.91 78.0704C622.16 77.5904 621.07 77.1904 619.65 76.8604C618.22 76.5204 616.92 76.3204 615.73 76.2403V72.3304L636.37 71.0303L637.2 71.8604V119.55C637.2 120.93 637.47 122.08 638 122.99C638.53 123.9 639.36 124.57 640.5 125.01C641.36 125.37 642.21 125.65 643.03 125.87C643.85 126.09 644.78 126.24 645.8 126.32V130.24H622.82L622.9 125.61L622.91 125.58ZM638.39 47.9504C638.39 50.2004 637.65 52.1703 636.17 53.8503C634.69 55.5303 632.86 56.3703 630.68 56.3703C628.66 56.3703 626.91 55.5704 625.43 53.9704C623.95 52.3704 623.2 50.5403 623.2 48.4804C623.2 46.3104 623.94 44.4104 625.43 42.7904C626.91 41.1704 628.66 40.3604 630.68 40.3604C632.93 40.3604 634.78 41.1204 636.22 42.6404C637.66 44.1604 638.38 45.9304 638.38 47.9504H638.39Z" fill="black"/>
    <path d="M371.63 127.66C369.06 128.73 366.63 129.63 364.34 130.36C362.05 131.09 359.24 131.46 355.92 131.46C351.02 131.46 347.56 130.22 345.57 127.75C343.57 125.28 342.57 121.79 342.57 117.28V77.66H332.01V71.96H342.81V53.75H353.61V71.96H370.4V77.66H353.73V110.34C353.73 112.79 353.82 114.84 354 116.48C354.18 118.12 354.6 119.55 355.28 120.78C355.91 121.93 356.86 122.8 358.12 123.39C359.39 123.98 361.09 124.28 363.22 124.28C364.21 124.28 365.66 124.19 367.58 124.01C369.5 123.83 370.85 123.61 371.64 123.33V127.66H371.63Z" fill="black"/>
    <path d="M432.84 129.14C430.98 129.81 429.35 130.36 427.95 130.77C426.55 131.18 424.95 131.4 423.18 131.4C420.09 131.4 417.63 130.68 415.79 129.24C413.95 127.8 412.78 125.69 412.26 122.92H411.9C409.33 125.77 406.57 127.94 403.63 129.45C400.68 130.95 397.14 131.7 392.98 131.7C388.59 131.7 384.98 130.36 382.16 127.67C379.33 124.98 377.92 121.46 377.92 117.11C377.92 114.86 378.24 112.84 378.87 111.06C379.5 109.28 380.45 107.68 381.72 106.25C382.71 105.07 384.01 104.01 385.64 103.08C387.26 102.15 388.78 101.41 390.21 100.86C391.99 100.19 395.6 98.9403 401.03 97.1203C406.47 95.3003 410.13 93.8803 412.03 92.8503V86.9803C412.03 86.4703 411.92 85.4803 411.7 84.0103C411.48 82.5503 411.02 81.1603 410.31 79.8603C409.52 78.4003 408.4 77.1203 406.96 76.0403C405.52 74.9603 403.47 74.4103 400.82 74.4103C399 74.4103 397.31 74.7203 395.75 75.3303C394.19 75.9403 393.09 76.5903 392.46 77.2603C392.46 78.0503 392.65 79.2203 393.03 80.7603C393.4 82.3003 393.59 83.7303 393.59 85.0303C393.59 86.4203 392.96 87.6803 391.72 88.8303C390.47 89.9703 388.74 90.5503 386.53 90.5503C384.55 90.5503 383.1 89.8503 382.17 88.4403C381.24 87.0403 380.77 85.4603 380.77 83.7203C380.77 81.9803 381.41 80.1603 382.7 78.5003C383.99 76.8403 385.66 75.3603 387.71 74.0503C389.49 72.9403 391.64 72.0003 394.18 71.2303C396.71 70.4603 399.18 70.0703 401.59 70.0703C404.91 70.0703 407.81 70.3003 410.28 70.7503C412.75 71.2003 415 72.1903 417.01 73.6903C419.03 75.1503 420.56 77.1403 421.61 79.6503C422.66 82.1603 423.19 85.4003 423.19 89.3503C423.19 95.0103 423.13 100.01 423.01 104.38C422.89 108.75 422.83 113.52 422.83 118.7C422.83 120.24 423.1 121.47 423.63 122.38C424.17 123.29 424.98 124.06 426.09 124.69C426.68 125.05 427.62 125.24 428.91 125.28C430.2 125.32 431.51 125.34 432.86 125.34V129.14H432.84ZM412.14 97.8303C408.78 98.8203 405.84 99.7903 403.3 100.74C400.77 101.69 398.42 102.88 396.24 104.31C394.26 105.66 392.7 107.25 391.56 109.09C390.41 110.93 389.84 113.12 389.84 115.66C389.84 118.95 390.7 121.37 392.42 122.91C394.14 124.45 396.32 125.23 398.97 125.23C401.78 125.23 404.25 124.55 406.39 123.18C408.52 121.81 410.32 120.2 411.79 118.34L412.15 97.8303H412.14Z" fill="black"/>
    <path d="M603.42 60.1004C602.16 56.6004 600.26 53.7404 597.74 51.5004C595.21 49.2704 591.62 48.1504 586.95 48.1504H577.48C577.18 49.9004 576.94 51.8204 576.75 53.9104C576.55 56.0004 576.38 58.4104 576.24 61.1204C576.1 63.8404 576 67.0504 575.95 70.7404C575.9 74.4304 575.87 78.7504 575.87 83.7104V107.33C575.87 110.73 575.97 113.43 576.17 115.42C576.36 117.41 576.7 118.97 577.19 120.09C577.68 121.21 578.38 121.96 579.31 122.35C580.24 122.74 581.42 122.98 582.88 123.08L585.35 123.22V130.22H557.94V128.76C559.01 126.92 559.87 125.14 560.5 123.44C561.13 121.74 561.64 119.43 562.03 116.51C562.42 113.59 562.66 109.78 562.76 105.07C562.86 100.35 562.9 94.1104 562.9 86.3404V59.9604C562.9 58.6004 562.87 57.2104 562.83 55.8104C562.78 54.4004 562.73 53.0204 562.69 51.6504C562.64 50.2904 562.56 49.1304 562.47 48.1504H553.58C549.3 48.1504 545.75 49.3404 542.93 51.7204C540.11 54.1004 537.68 57.0404 535.65 60.5404H529.23C529.62 59.0804 530 57.4604 530.4 55.6604C530.79 53.8604 531.17 52.0204 531.56 50.1204C531.95 48.2304 532.29 46.3804 532.58 44.5804C532.88 42.7804 533.12 41.1504 533.31 39.6904H607.36C607.55 42.8004 607.85 46.2504 608.23 50.0404C608.62 53.8304 609.1 57.1404 609.69 59.9504L603.42 60.0904V60.1004Z" fill="black"/>
    <path d="M692.04 126.06C693.13 125.98 694.03 125.83 694.74 125.59C695.85 125.23 696.67 124.61 697.21 123.72C697.74 122.83 698.01 121.67 698.01 120.25V90.1799C698.01 86.0299 697.03 82.8199 695.07 80.5699C693.11 78.3199 690.71 77.1899 687.91 77.1899C685.8 77.1899 683.89 77.5199 682.14 78.1699C680.39 78.8199 678.85 79.6199 677.5 80.5699C676.19 81.4799 675.15 82.4599 674.38 83.4999C673.61 84.5499 673.04 85.3899 672.69 86.0199V119.65C672.69 121 672.96 122.1 673.52 122.97C674.07 123.84 674.91 124.51 676.01 124.99C676.84 125.39 677.74 125.68 678.71 125.88C679.67 126.08 680.67 126.22 681.7 126.29V130.21H658.39V125.58C659.51 125.22 660.33 124.6 660.86 123.72C661.39 122.83 661.66 121.67 661.66 120.25V84.1699C661.66 82.8299 661.37 81.5999 660.8 80.4699C660.23 79.3499 659.43 78.4299 658.41 77.7099C657.65 77.2399 656.76 76.8899 655.74 76.6699C654.71 76.4499 653.61 76.3099 652.42 76.2299V72.3199L671.87 71.0199L672.71 71.8499V80.0899H673.01C673.96 79.1399 675.14 78.0099 676.57 76.6799C677.99 75.3599 679.34 74.2799 680.6 73.4499C682.07 72.4999 683.8 71.7099 685.82 71.0799C687.84 70.4499 690.11 70.1299 692.64 70.1299C698.26 70.1299 702.41 71.8799 705.12 75.3799C707.83 78.8799 709.19 83.5399 709.19 89.3499V119.77C709.19 121.16 709.42 122.27 709.9 123.12C710.37 123.97 711.18 124.63 712.33 125.11C713.28 125.5 714.09 125.78 714.79 125.94C715.48 126.1 716.45 126.22 717.67 126.3V130.22H692.07V126.07L692.04 126.06Z" fill="black"/>
    <path d="M477.65 126.06C478.74 125.98 479.64 125.83 480.35 125.59C481.46 125.23 482.28 124.61 482.82 123.72C483.35 122.83 483.62 121.67 483.62 120.25V90.1799C483.62 86.0299 482.64 82.8199 480.68 80.5699C478.72 78.3199 476.32 77.1899 473.52 77.1899C471.41 77.1899 469.5 77.5199 467.75 78.1699C466 78.8199 464.46 79.6199 463.11 80.5699C461.8 81.4799 460.76 82.4599 459.99 83.4999C459.22 84.5499 458.65 85.3899 458.3 86.0199V119.65C458.3 121 458.57 122.1 459.13 122.97C459.68 123.84 460.52 124.51 461.62 124.99C462.45 125.39 463.35 125.68 464.32 125.88C465.28 126.08 466.28 126.22 467.31 126.29V130.21H444V125.58C445.12 125.22 445.94 124.6 446.47 123.72C447 122.83 447.27 121.67 447.27 120.25V84.1699C447.27 82.8299 446.98 81.5999 446.41 80.4699C445.84 79.3499 445.04 78.4299 444.02 77.7099C443.26 77.2399 442.37 76.8899 441.35 76.6699C440.32 76.4499 439.22 76.3099 438.03 76.2299V72.3199L457.48 71.0199L458.32 71.8499V80.0899H458.62C459.57 79.1399 460.75 78.0099 462.18 76.6799C463.6 75.3599 464.95 74.2799 466.21 73.4499C467.68 72.4999 469.41 71.7099 471.43 71.0799C473.45 70.4499 475.72 70.1299 478.25 70.1299C483.87 70.1299 488.02 71.8799 490.73 75.3799C493.44 78.8799 494.8 83.5399 494.8 89.3499V119.77C494.8 121.16 495.03 122.27 495.51 123.12C495.98 123.97 496.79 124.63 497.94 125.11C498.89 125.5 499.7 125.78 500.4 125.94C501.09 126.1 502.06 126.22 503.28 126.3V130.22H477.68V126.07L477.65 126.06Z" fill="black"/>
    <path d="M760.94 127.66C758.37 128.73 755.94 129.63 753.64 130.36C751.35 131.09 748.54 131.46 745.22 131.46C740.32 131.46 736.87 130.22 734.87 127.75C732.88 125.28 731.88 121.79 731.88 117.28V77.66H721.32V71.96H732.11V53.75H742.9V71.96H759.69V77.66H743.03V110.34C743.03 112.79 743.11 114.84 743.29 116.48C743.47 118.12 743.89 119.55 744.57 120.78C745.2 121.93 746.15 122.8 747.41 123.39C748.68 123.98 750.38 124.28 752.51 124.28C753.5 124.28 754.95 124.19 756.87 124.01C758.79 123.83 760.15 123.61 760.94 123.33V127.66Z" fill="black"/>
    </g>
    <defs>
    <clipPath id="clip0_91_176">
    <rect width="760.94" height="232.87" fill="white"/>
    </clipPath>
    </defs>
    </svg>
    