<svg width="745" height="374" viewBox="0 0 745 374" fill="none" xmlns="http://www.w3.org/2000/svg">
<path d="M231.51 147.84H214.09V165.26H231.51V147.84Z" fill="white"/>
<path d="M254.28 147.84H236.86V165.26H254.28V147.84Z" fill="white"/>
<path d="M231.51 170.34H214.09V187.76H231.51V170.34Z" fill="white"/>
<path d="M254.28 170.34H236.86V187.76H254.28V170.34Z" fill="white"/>
<path d="M390.7 56.81H377.45V70.06H390.7V56.81Z" fill="white"/>
<path d="M408.01 56.81H394.76V70.06H408.01V56.81Z" fill="white"/>
<path d="M390.7 73.92H377.45V87.17H390.7V73.92Z" fill="white"/>
<path d="M408.01 73.92H394.76V87.17H408.01V73.92Z" fill="white"/>
<path d="M517.27 147.84H499.85V165.26H517.27V147.84Z" fill="white"/>
<path d="M540.05 147.84H522.63V165.26H540.05V147.84Z" fill="white"/>
<path d="M517.27 170.34H499.85V187.76H517.27V170.34Z" fill="white"/>
<path d="M540.05 170.34H522.63V187.76H540.05V170.34Z" fill="white"/>
<path d="M0 224.62H76L234.18 92.12L393.11 223.86L518.44 108.74L665.9 224.4L666.15 224.62H742.15L670.79 220L529.64 86.56L490 97.23L392.73 0L302 90.71L234.18 66.45L177.51 120.08L160 112.83H122.08V172.53L73.6 218.41L0 224.62ZM392.73 21.16L489.51 97.35L393.11 123.27L311.53 94.11L392.73 21.16ZM127.62 119.49H160V136.62L127.59 167.29L127.62 119.49Z" fill="white"/>
<path d="M742.17 354.57H553.43V358.57H742.17V354.57Z" fill="white"/>
<path d="M198.88 354.57H10.1399V358.57H198.88V354.57Z" fill="white"/>
<path d="M33.6401 312.78L30.8501 311.94C29.7774 311.712 28.8216 311.108 28.1557 310.237C27.4899 309.366 27.158 308.285 27.2201 307.19V290.06H30.3801C37.0467 290.06 42.3267 289.19 46.2201 287.45C49.7051 286.076 52.6592 283.623 54.6501 280.45C56.3557 277.489 57.2395 274.127 57.2101 270.71C57.291 268.148 56.7716 265.603 55.6933 263.278C54.615 260.953 53.0078 258.913 51.0001 257.32C46.8734 253.933 40.1834 252.24 30.9301 252.24H8.31006V253.17L10.0801 253.92C11.1022 254.189 11.9932 254.818 12.5901 255.69C13.0747 256.613 13.3027 257.649 13.2501 258.69V307.49C13.2977 308.525 13.0881 309.556 12.6401 310.49C12.3598 310.919 11.9972 311.289 11.5732 311.577C11.1493 311.866 10.6723 312.067 10.1701 312.17L8.31006 312.82V313.75H33.6401V312.78ZM27.2201 254.11H30.3801C32.94 254.025 35.4863 254.517 37.8301 255.55C39.9361 256.64 41.5511 258.487 42.3501 260.72C43.3834 263.2 43.8967 266.677 43.8901 271.15C44.0216 274.652 43.548 278.149 42.4901 281.49C41.7786 283.708 40.2479 285.571 38.2101 286.7C35.8804 287.782 33.3265 288.292 30.7601 288.19H27.2201V254.11Z" fill="white"/>
<path d="M64.42 310.22C63.8562 311.088 62.9961 311.72 62 312L60 312.74V313.67H105.27L106.1 297.47H105.17L101.54 305.29C100.773 307.064 99.7187 308.699 98.42 310.13C97.3267 311.25 95.6333 311.81 93.34 311.81H79V258.76C78.9609 257.721 79.1845 256.689 79.65 255.76C80.2107 254.881 81.0702 254.235 82.07 253.94L83.75 253.19V252.26H60V253.19L62 253.94C63.0056 254.194 63.8733 254.829 64.42 255.71C64.8339 256.654 65.0255 257.68 64.98 258.71V307.33C65.0086 308.323 64.8173 309.31 64.42 310.22Z" fill="white"/>
<path d="M145.31 312.32L143.92 312.78V313.71H167.57V312.78L166.46 312.41C165.362 312.049 164.37 311.424 163.57 310.59C162.829 309.658 162.26 308.602 161.89 307.47L143 252.06H135.09L115.9 307.06C115.567 308.169 114.997 309.193 114.23 310.06C113.405 310.86 112.42 311.477 111.34 311.87L109.01 312.71V313.64H121.86V312.71L119.86 311.87C118.527 311.377 117.797 310.727 117.67 309.92C117.553 308.815 117.697 307.699 118.09 306.66L122.56 293.53H143.24L147.55 307C147.915 308.032 147.964 309.15 147.69 310.21C147.484 310.722 147.162 311.179 146.749 311.546C146.336 311.912 145.843 312.177 145.31 312.32ZM123.15 291.73L133.21 262.73L142.61 291.73H123.15Z" fill="white"/>
<path d="M206.32 254.11C208.61 254.11 210.26 254.71 211.25 255.92C212.456 257.469 213.489 259.146 214.33 260.92L217.68 267.44H218.61L218.24 252.26H164.5L164 267.42H165L168.36 260.9C169.247 259.134 170.305 257.459 171.52 255.9C172.52 254.69 174.16 254.09 176.46 254.09H184.38V307.17C184.465 308.289 184.116 309.398 183.405 310.266C182.693 311.134 181.674 311.694 180.56 311.83L176.74 312.76V313.69H206V312.76L202.18 311.83C201.065 311.697 200.044 311.137 199.332 310.269C198.62 309.4 198.272 308.29 198.36 307.17V254.11H206.32Z" fill="white"/>
<path d="M242.22 255.69C242.793 254.812 243.674 254.18 244.69 253.92L246.55 253.17V252.24H222.62V253.17L224.48 253.92C224.994 254.035 225.481 254.251 225.912 254.554C226.343 254.858 226.709 255.244 226.99 255.69C227.409 256.633 227.6 257.66 227.55 258.69V307.31C227.598 308.344 227.392 309.374 226.95 310.31C226.369 311.18 225.491 311.809 224.48 312.08L222.62 312.82V313.75H246.55V312.82L244.69 312.08C243.688 311.763 242.819 311.123 242.22 310.26C241.776 309.35 241.57 308.342 241.62 307.33V258.67C241.574 257.643 241.78 256.619 242.22 255.69Z" fill="white"/>
<path d="M295.91 314H301.13V259.23C301.111 258.132 301.236 257.036 301.5 255.97C301.636 255.486 301.897 255.046 302.257 254.695C302.617 254.344 303.063 254.094 303.55 253.97L306.07 253.13V252.2H292.75V253.13L295.82 253.97C296.366 254.071 296.878 254.307 297.309 254.656C297.74 255.006 298.078 255.457 298.29 255.97C298.704 257.038 298.908 258.175 298.89 259.32V294.43L268 252.24H251.49V253.17L253.07 254.76C253.94 255.56 254.62 256.23 255.12 256.76C255.653 257.334 256.107 257.976 256.47 258.67C256.87 259.41 257.42 260.53 258.1 262.02V306.82C258.129 307.935 257.874 309.04 257.36 310.03C257.102 310.484 256.753 310.881 256.335 311.194C255.917 311.507 255.439 311.731 254.93 311.85L251.86 312.78V313.71H266V312.78L263.2 311.85C262.698 311.732 262.229 311.504 261.826 311.182C261.423 310.86 261.096 310.453 260.87 309.99C260.477 308.981 260.29 307.903 260.32 306.82V265.1L295.91 314Z" fill="white"/>
<path d="M340.06 315.39C344.022 315.484 347.94 314.536 351.42 312.64C354.641 310.82 357.264 308.103 358.97 304.82C360.838 301.144 361.766 297.062 361.67 292.94V258.86C361.648 257.748 361.838 256.641 362.23 255.6C362.428 255.125 362.747 254.712 363.156 254.401C363.566 254.09 364.05 253.893 364.56 253.83L367.07 253.17V252.24H354V253.17L356.33 253.73C356.866 253.825 357.37 254.048 357.8 254.381C358.231 254.713 358.574 255.145 358.8 255.64C359.216 256.693 359.42 257.818 359.4 258.95V293.13C359.4 298.463 358.02 302.593 355.26 305.52C352.5 308.44 348.75 309.89 344.04 309.89C339.5 309.89 336.023 308.51 333.61 305.75C331.197 302.99 329.993 298.72 330 292.94V258.58C330 256.027 331.15 254.473 333.45 253.92L336.15 253.17V252.24H310.35V253.17L312.35 253.73C314.77 254.483 315.98 256.037 315.98 258.39V290.52C315.98 296.48 316.98 301.277 318.98 304.91C320.859 308.426 323.832 311.235 327.45 312.91C331.422 314.646 335.726 315.493 340.06 315.39Z" fill="white"/>
<path d="M435.43 255.55C435.998 254.674 436.859 254.028 437.86 253.73L439.35 253.17V252.24H421L404.79 297.32L387.56 252.24H369.56V253.17L371.98 254.29C372.451 254.437 372.888 254.677 373.265 254.997C373.641 255.316 373.949 255.709 374.17 256.15C374.484 257.118 374.626 258.133 374.59 259.15V306.83C374.59 309.69 373.533 311.46 371.42 312.14L369.56 312.79V313.72H381.85V312.79L379.8 312.14C379.299 312.021 378.829 311.797 378.42 311.484C378.012 311.17 377.674 310.773 377.43 310.32C376.981 309.28 376.773 308.152 376.82 307.02V283.54L376.54 260.35L396.85 313.71H401.5L420.97 259.71L420.78 286.35V307.35C420.827 308.331 420.67 309.312 420.32 310.23C419.817 311.075 419.019 311.706 418.08 312L416.13 312.84V313.77H439.32V312.84L437.45 312C436.512 311.709 435.716 311.078 435.22 310.23C434.866 309.313 434.706 308.332 434.75 307.35V258.58C434.717 257.529 434.951 256.486 435.43 255.55Z" fill="white"/>
<path d="M483.72 252.62C479.861 253.933 476.311 256.023 473.29 258.76C470.213 261.591 467.784 265.053 466.17 268.91C464.347 273.379 463.458 278.174 463.56 283C463.56 290.02 464.987 295.95 467.84 300.79C470.551 305.494 474.585 309.299 479.44 311.73C484.52 314.229 490.119 315.49 495.78 315.41C499.362 315.44 502.932 315.003 506.4 314.11C509.435 313.315 512.372 312.189 515.16 310.75L515.44 297.43H514.51L510.41 306.56C509.931 307.641 509.369 308.685 508.73 309.68C508.078 310.672 507.135 311.437 506.03 311.87C504.898 312.413 503.711 312.835 502.49 313.13C500.927 313.447 499.334 313.588 497.74 313.55C494.286 313.592 490.899 312.603 488.01 310.71C485.123 308.81 482.84 305.643 481.16 301.21C479.48 296.777 478.643 290.737 478.65 283.09C478.65 275.39 479.533 269.32 481.3 264.88C483.067 260.44 485.427 257.26 488.38 255.34C491.296 253.42 494.719 252.414 498.21 252.45C499.352 252.427 500.493 252.538 501.61 252.78C502.555 253.019 503.473 253.354 504.35 253.78C505.451 254.266 506.413 255.019 507.15 255.97C507.923 256.984 508.608 258.061 509.2 259.19L513.85 266.64H514.78L514.41 255.18C511.761 253.732 508.947 252.607 506.03 251.83C502.838 250.995 499.549 250.588 496.25 250.62C491.991 250.578 487.755 251.254 483.72 252.62Z" fill="white"/>
<path d="M545 284.38L558.78 313.71H575.46V312.88L574.25 312.41C573.211 311.998 572.248 311.417 571.4 310.69C570.626 309.951 569.983 309.085 569.5 308.13L556.5 282.42C560.913 280.927 564.143 278.817 566.19 276.09C568.082 273.766 569.16 270.885 569.26 267.89C569.338 265.633 568.84 263.392 567.813 261.381C566.786 259.369 565.264 257.651 563.39 256.39C559.483 253.63 553.863 252.247 546.53 252.24H519.91V253.17L522.05 254.01C523.006 254.268 523.824 254.889 524.33 255.74C524.711 256.668 524.885 257.668 524.84 258.67V307.38C524.89 308.41 524.698 309.437 524.28 310.38C523.718 311.237 522.854 311.851 521.86 312.1L519.86 312.75V313.68H543.7V312.75L541.47 311.91C540.988 311.805 540.533 311.603 540.133 311.315C539.732 311.028 539.394 310.662 539.14 310.24C538.731 309.333 538.539 308.344 538.58 307.35V284.35L545 284.38ZM538.67 254.11H543.6C548.013 254.11 551.15 255.273 553.01 257.6C554.87 259.927 555.803 263.48 555.81 268.26C555.81 272.98 554.81 276.537 552.81 278.93C550.81 281.323 547.583 282.517 543.13 282.51H538.66L538.67 254.11Z" fill="white"/>
<path d="M614.35 312.32L612.95 312.78V313.71H636.61V312.78L635.49 312.41C634.392 312.049 633.4 311.424 632.6 310.59C631.859 309.658 631.29 308.602 630.92 307.47L612 252.06H604.1L584.92 307.06C584.63 308.188 584.059 309.223 583.259 310.069C582.46 310.916 581.459 311.546 580.35 311.9L578.02 312.74V313.67H590.88V312.74L588.88 311.9C587.547 311.407 586.817 310.757 586.69 309.95C586.563 308.845 586.707 307.726 587.11 306.69L591.58 293.56H612.2L616.58 307C616.945 308.032 616.994 309.15 616.72 310.21C616.514 310.721 616.193 311.177 615.782 311.543C615.371 311.909 614.881 312.175 614.35 312.32ZM592.18 291.73L602.24 262.73L611.64 291.73H592.18Z" fill="white"/>
<path d="M658.49 254.11H673.49C674.691 254.029 675.88 254.384 676.84 255.11C677.725 255.894 678.452 256.841 678.98 257.9L684.29 267.68H685.22L684.57 252.22H639.49V253.15L641.49 253.9C641.969 254.028 642.418 254.25 642.809 254.554C643.201 254.858 643.527 255.238 643.77 255.67C644.154 256.622 644.331 257.644 644.29 258.67C644.35 262.39 644.38 266.14 644.38 269.89V296.2C644.38 299.993 644.35 303.75 644.29 307.47C644.344 308.511 644.116 309.547 643.63 310.47C643.033 311.342 642.142 311.971 641.12 312.24L639.44 312.8V313.73H664.78V312.8L661.98 311.96C660.922 311.718 659.985 311.107 659.336 310.236C658.687 309.366 658.37 308.293 658.44 307.21C658.38 303.43 658.35 299.56 658.35 295.62V283.16H668.04C668.6 283.109 669.166 283.171 669.702 283.342C670.238 283.514 670.734 283.792 671.16 284.16C671.905 284.978 672.547 285.885 673.07 286.86L675.07 290.4H676.01V274.1H675.07L673.12 277.64C672.614 278.648 671.937 279.562 671.12 280.34C670.218 281.03 669.092 281.362 667.96 281.27H658.4V267.61C658.4 263 658.43 258.51 658.49 254.11Z" fill="white"/>
<path d="M744.55 252.24H690.81L690.35 267.42H691.28L694.63 260.9C695.52 259.133 696.582 257.459 697.8 255.9C698.793 254.693 700.437 254.09 702.73 254.09H710.65V307.17C710.738 308.29 710.39 309.4 709.678 310.269C708.966 311.137 707.945 311.697 706.83 311.83L703.01 312.76V313.69H732.35V312.76L728.53 311.83C727.415 311.697 726.395 311.137 725.683 310.269C724.971 309.4 724.622 308.29 724.71 307.17V254.11H732.63C734.93 254.11 736.57 254.71 737.57 255.92C738.769 257.472 739.799 259.148 740.64 260.92L743.99 267.44H744.92L744.55 252.24Z" fill="white"/>
<path d="M239.85 369.27C239.63 369.934 239.26 370.54 238.77 371.04C238.257 371.486 237.589 371.712 236.91 371.67H224.79V353H231.21C231.537 352.975 231.866 353.018 232.176 353.126C232.486 353.234 232.77 353.406 233.01 353.63C233.472 354.141 233.856 354.717 234.15 355.34L235.35 357.86H235.95V347.06H235.35L234.15 349.46C233.887 350.093 233.511 350.672 233.04 351.17C232.793 351.392 232.503 351.563 232.189 351.671C231.875 351.779 231.542 351.823 231.21 351.8H224.79V334.47H235.59C235.92 334.445 236.251 334.491 236.562 334.604C236.872 334.718 237.155 334.898 237.39 335.13C237.847 335.656 238.23 336.241 238.53 336.87L241.11 342.51H241.71L241.35 333.27H212.61V333.87L213.99 334.41C214.605 334.576 215.132 334.974 215.46 335.52C215.706 336.118 215.819 336.764 215.79 337.41V368.73C215.822 369.383 215.688 370.033 215.4 370.62C215.069 371.138 214.572 371.529 213.99 371.73L212.61 372.27V372.87H242.55L242.91 363.63H242.31L239.85 369.27Z" fill="white"/>
<path d="M267.81 371.91L266.43 372.27V372.87H283.23V372.27L282.09 371.79C281.475 371.537 280.907 371.182 280.41 370.74C279.922 370.246 279.498 369.691 279.15 369.09L267.75 349.59L275.75 337.05C276.133 336.446 276.564 335.874 277.04 335.34C277.52 334.841 278.135 334.494 278.81 334.34L280.37 333.86V333.26H272.03V333.86L273.23 334.16C274.15 334.4 274.56 334.86 274.46 335.54C274.307 336.355 273.99 337.13 273.53 337.82L267 348.27L260.82 337.77C260.393 337.133 260.182 336.376 260.22 335.61C260.3 335.01 260.76 334.57 261.6 334.29L262.98 333.87V333.27H246.87V333.87L247.87 334.29C248.467 334.485 249.004 334.829 249.43 335.29C249.71 335.67 250.043 336.2 250.43 336.88L260.93 354.76L251.69 369.04C251.275 369.68 250.793 370.274 250.25 370.81C249.674 371.324 248.991 371.703 248.25 371.92L247.25 372.22V372.82H255.35V372.22L254.51 371.98C254.19 371.932 253.893 371.785 253.661 371.559C253.43 371.332 253.275 371.039 253.22 370.72C253.156 369.947 253.381 369.177 253.85 368.56L261.71 356.14L268.85 368.32C269.32 368.959 269.534 369.751 269.45 370.54C269.317 371.213 268.77 371.67 267.81 371.91Z" fill="white"/>
<path d="M313.71 334.47C314.294 334.413 314.883 334.488 315.434 334.691C315.985 334.893 316.483 335.218 316.89 335.64C317.671 336.634 318.342 337.711 318.89 338.85L321.05 343.05H321.65L321.41 333.27H286.77L286.47 343.05H287.07L289.23 338.85C289.792 337.718 290.462 336.643 291.23 335.64C291.637 335.218 292.135 334.893 292.686 334.691C293.237 334.488 293.826 334.413 294.41 334.47H299.51V368.67C299.567 369.391 299.342 370.106 298.884 370.665C298.425 371.224 297.768 371.584 297.05 371.67L294.59 372.27V372.87H313.49V372.27L311.03 371.67C310.312 371.584 309.655 371.224 309.196 370.665C308.738 370.106 308.513 369.391 308.57 368.67V334.47H313.71Z" fill="white"/>
<path d="M353.85 369.27C353.629 369.934 353.26 370.54 352.77 371.04C352.257 371.486 351.589 371.712 350.91 371.67H338.79V353H345.21C345.537 352.975 345.866 353.018 346.176 353.126C346.486 353.234 346.77 353.406 347.01 353.63C347.472 354.141 347.856 354.717 348.15 355.34L349.35 357.86H349.95V347.06H349.35L348.15 349.46C347.887 350.093 347.511 350.672 347.04 351.17C346.793 351.392 346.503 351.563 346.189 351.671C345.874 351.779 345.542 351.823 345.21 351.8H338.79V334.47H349.59C349.92 334.445 350.251 334.491 350.562 334.604C350.872 334.718 351.155 334.898 351.39 335.13C351.847 335.656 352.23 336.241 352.53 336.87L355.11 342.51H355.71L355.35 333.27H326.61V333.87L327.99 334.41C328.605 334.576 329.132 334.974 329.46 335.52C329.706 336.118 329.819 336.764 329.79 337.41V368.73C329.822 369.383 329.688 370.033 329.4 370.62C329.068 371.138 328.572 371.529 327.99 371.73L326.61 372.27V372.87H356.55L356.91 363.63H356.31L353.85 369.27Z" fill="white"/>
<path d="M398.07 372.33L397.29 372.03C396.622 371.766 396.003 371.391 395.46 370.92C394.958 370.445 394.542 369.887 394.23 369.27L385.89 352.71C388.336 352.014 390.512 350.591 392.13 348.63C393.36 347.138 394.063 345.282 394.13 343.35C394.181 341.896 393.861 340.452 393.199 339.156C392.538 337.859 391.557 336.753 390.35 335.94C387.83 334.16 384.21 333.27 379.49 333.27H362.31V333.87L363.69 334.41C364.305 334.576 364.832 334.974 365.16 335.52C365.406 336.118 365.519 336.764 365.49 337.41V368.79C365.524 369.459 365.401 370.127 365.13 370.74C364.768 371.293 364.211 371.689 363.57 371.85L362.31 372.27V372.87H377.67V372.27L376.23 371.73C375.92 371.661 375.627 371.529 375.369 371.344C375.112 371.158 374.894 370.922 374.73 370.65C374.469 370.066 374.345 369.429 374.37 368.79V354H378.45L387.33 372.9H398.07V372.33ZM383.49 350.46C382.21 352 380.13 352.77 377.25 352.77H374.37V334.47H377.55C380.39 334.47 382.41 335.22 383.61 336.72C384.81 338.22 385.41 340.51 385.41 343.59C385.41 346.63 384.77 348.92 383.49 350.46Z" fill="white"/>
<path d="M415 335.49C415.371 334.927 415.937 334.521 416.59 334.35L417.79 333.87V333.27H402.39V333.87L403.59 334.35C404.258 334.503 404.84 334.913 405.21 335.49C405.475 336.094 405.598 336.751 405.57 337.41V368.73C405.601 369.392 405.467 370.052 405.18 370.65C404.809 371.213 404.243 371.619 403.59 371.79L402.39 372.27V372.87H417.81V372.27L416.61 371.79C415.963 371.591 415.403 371.178 415.02 370.62C414.732 370.033 414.598 369.383 414.63 368.73V337.41C414.593 336.749 414.72 336.09 415 335.49Z" fill="white"/>
<path d="M459.51 353.07C459.573 349.949 459.044 346.844 457.95 343.92C457.018 341.466 455.576 339.237 453.72 337.38C451.992 335.674 449.929 334.346 447.66 333.48C445.409 332.622 443.019 332.184 440.61 332.19C435.725 332.189 431.032 334.095 427.53 337.5C425.663 339.342 424.21 341.561 423.27 344.01C421.19 349.891 421.19 356.309 423.27 362.19C424.207 364.633 425.648 366.851 427.5 368.7C429.232 370.409 431.294 371.746 433.56 372.63C435.807 373.508 438.198 373.955 440.61 373.95C443.025 373.955 445.418 373.496 447.66 372.6C449.927 371.686 451.988 370.325 453.72 368.6C455.589 366.76 457.048 364.545 458 362.1C459.07 359.213 459.582 356.148 459.51 353.07ZM448.92 364.86C448.3 367.72 447.3 369.74 445.92 370.92C444.419 372.149 442.517 372.779 440.58 372.69C438.662 372.773 436.781 372.142 435.3 370.92C433.967 369.74 432.967 367.72 432.3 364.86C431.06 357.029 431.06 349.051 432.3 341.22C432.92 338.36 433.92 336.34 435.3 335.16C436.781 333.938 438.662 333.307 440.58 333.39C442.517 333.301 444.419 333.931 445.92 335.16C447.253 336.34 448.253 338.36 448.92 341.22C450.16 349.051 450.16 357.029 448.92 364.86Z" fill="white"/>
<path d="M479.55 354L488.43 372.9H499.17V372.36L498.39 372.06C497.722 371.796 497.103 371.421 496.56 370.95C496.058 370.475 495.642 369.917 495.33 369.3L487 352.71C489.445 352.014 491.622 350.591 493.24 348.63C494.47 347.138 495.173 345.282 495.24 343.35C495.291 341.896 494.971 340.452 494.309 339.156C493.648 337.859 492.667 336.753 491.46 335.94C488.94 334.16 485.32 333.27 480.6 333.27H463.41V333.87L464.79 334.41C465.405 334.576 465.932 334.974 466.26 335.52C466.506 336.118 466.619 336.764 466.59 337.41V368.79C466.624 369.459 466.501 370.127 466.23 370.74C465.868 371.293 465.311 371.689 464.67 371.85L463.41 372.27V372.87H478.77V372.27L477.33 371.73C477.02 371.661 476.727 371.529 476.469 371.344C476.211 371.158 475.994 370.922 475.83 370.65C475.568 370.066 475.445 369.429 475.47 368.79V354H479.55ZM475.47 334.5H478.65C481.49 334.5 483.51 335.25 484.71 336.75C485.91 338.25 486.51 340.54 486.51 343.62C486.51 346.66 485.87 348.95 484.59 350.49C483.31 352.03 481.23 352.8 478.35 352.8H475.47V334.5Z" fill="white"/>
<path d="M516.21 374C521.09 374 524.86 372.89 527.52 370.67C529.787 368.711 531.207 365.95 531.481 362.966C531.756 359.983 530.863 357.009 528.99 354.67C527.31 352.77 524.55 350.98 520.71 349.3L517.95 348.1C516.163 347.346 514.55 346.233 513.21 344.83C512.078 343.46 511.5 341.715 511.59 339.94C511.553 339.037 511.723 338.138 512.087 337.311C512.451 336.485 512.999 335.752 513.69 335.17C515.138 333.973 516.972 333.343 518.85 333.4C519.411 333.393 519.973 333.423 520.53 333.49C521.018 333.561 521.5 333.671 521.97 333.82C522.832 334.051 523.631 334.471 524.31 335.05C525.167 335.909 525.847 336.928 526.31 338.05L528.77 342.55H529.37L529.73 335.35C528.21 334.334 526.54 333.565 524.78 333.07C522.831 332.504 520.81 332.222 518.78 332.23C516.163 332.174 513.562 332.643 511.13 333.61C509.085 334.432 507.315 335.819 506.03 337.61C504.787 339.404 504.146 341.548 504.2 343.73C504.132 345.173 504.355 346.615 504.855 347.97C505.355 349.325 506.122 350.567 507.11 351.62C509.446 353.862 512.184 355.643 515.18 356.87L517.64 357.95C519.372 358.714 520.94 359.804 522.26 361.16C523.287 362.461 523.8 364.095 523.7 365.75C523.731 366.703 523.557 367.652 523.19 368.532C522.822 369.412 522.27 370.202 521.57 370.85C519.972 372.242 517.896 372.959 515.78 372.85C514.945 372.857 514.112 372.787 513.29 372.64C512.486 372.478 511.709 372.205 510.98 371.83C509.937 371.411 509.026 370.721 508.34 369.83C507.653 368.885 507.05 367.881 506.54 366.83L504.68 362.93H504.08L503.78 371.09C505.567 372.072 507.487 372.789 509.48 373.22C511.685 373.741 513.944 374.003 516.21 374Z" fill="white"/>
</svg>
