<svg width="49" height="48" viewBox="0 0 49 48" fill="none" xmlns="http://www.w3.org/2000/svg">
<g clip-path="url(#clip0_1_442)">
<path d="M41.2084 0C37.5158 0 34.6556 3.14672 34.5357 3.28069C34.5348 3.28181 34.5339 3.28303 34.5329 3.28416C34.3564 3.48216 34.2236 3.76266 34.1883 4.04194C34.0975 4.75266 33.6388 5.625 32.7709 5.625C31.9166 5.625 31.4646 4.79756 31.3519 4.03012L31.3535 4.04184L31.3522 4.04203C31.3164 3.76031 31.1973 3.49425 31.006 3.28059C30.8861 3.14672 28.0259 0 24.3334 0C20.6408 0 17.7806 3.14672 17.6607 3.28069C17.6595 3.282 17.6586 3.28341 17.6573 3.28472C17.4785 3.486 17.3482 3.76584 17.3133 4.04194C17.2225 4.75266 16.7638 5.625 15.8959 5.625C15.0416 5.625 14.5896 4.79756 14.4769 4.03012L14.4785 4.04184L14.4772 4.04203C14.4414 3.76031 14.3223 3.49425 14.131 3.28059C14.0111 3.14672 11.1509 0 7.45837 0C3.78094 0 0.832968 3.12862 0.709218 3.26175C0.467718 3.52181 0.333374 3.86372 0.333374 4.21875V43.7812C0.333374 44.358 0.686905 44.8748 1.22325 45.0872C1.75931 45.2995 2.37244 45.1614 2.76731 44.7412C2.78953 44.7174 5.01834 42.375 7.45837 42.375C9.39581 42.375 11.1478 43.8592 11.7842 44.467C12.1357 45.9131 13.2987 48 15.8959 48C18.493 48 19.6561 45.9131 20.0076 44.467C20.6437 43.8592 22.3957 42.375 24.3334 42.375C26.2708 42.375 28.0228 43.8592 28.6592 44.467C29.0107 45.9131 30.1737 48 32.7709 48C35.368 48 36.5311 45.9131 36.8826 44.467C37.5187 43.8592 39.2707 42.375 41.2084 42.375C43.6552 42.375 45.8813 44.6293 45.9157 44.6644C46.3132 45.0761 46.921 45.2058 47.4523 44.992C47.9846 44.7777 48.3334 44.2614 48.3334 43.6875V4.21875C48.3334 3.86372 48.199 3.52181 47.9575 3.26175C47.8338 3.12862 44.8858 0 41.2084 0ZM41.2084 2.8125C43.0565 2.8125 44.7832 4.15622 45.5209 4.81716V21.1138C44.3547 20.4089 42.8552 19.7812 41.2084 19.7812C39.5881 19.7812 38.1282 20.3872 36.9896 21.0786V4.80384C37.7005 4.14713 39.3715 2.8125 41.2084 2.8125ZM32.7709 8.4375C33.297 8.4375 33.7635 8.35078 34.1771 8.20209V23.8829C34.0135 24.6893 33.5946 25.4062 32.7709 25.4062C31.9431 25.4062 31.5237 24.678 31.3646 23.8812V8.20209C31.7782 8.35078 32.2447 8.4375 32.7709 8.4375ZM24.3334 2.8125C26.1712 2.8125 27.8432 4.14872 28.5521 4.80366V21.0787C27.4135 20.3873 25.9537 19.7812 24.3334 19.7812C22.7131 19.7812 21.2532 20.3872 20.1146 21.0786V4.80384C20.8255 4.14713 22.4965 2.8125 24.3334 2.8125ZM15.8959 8.4375C16.422 8.4375 16.8885 8.35078 17.3021 8.20209V23.8829C17.1385 24.6893 16.7196 25.4062 15.8959 25.4062C15.0681 25.4062 14.6487 24.678 14.4896 23.8812V8.20209C14.9032 8.35078 15.3697 8.4375 15.8959 8.4375ZM7.45837 2.8125C9.29625 2.8125 10.9682 4.14872 11.6771 4.80366V21.0787C10.5385 20.3873 9.07866 19.7812 7.45837 19.7812C5.81147 19.7812 4.31203 20.4089 3.14587 21.1138V4.81744C3.88537 4.15472 5.61131 2.8125 7.45837 2.8125ZM7.45837 39.5625C5.81194 39.5625 4.31184 40.1895 3.14587 40.8942V24.6001C3.88509 23.9398 5.61806 22.5938 7.45837 22.5938C9.29606 22.5938 10.9668 23.9289 11.6771 24.5853V40.8596C10.5385 40.1683 9.07856 39.5625 7.45837 39.5625ZM15.8959 45.1875C15.0681 45.1875 14.6487 44.4593 14.4896 43.6625V27.9833C14.9032 28.132 15.3697 28.2188 15.8959 28.2188C16.422 28.2188 16.8885 28.132 17.3021 27.9833V43.6642C17.1385 44.4705 16.7196 45.1875 15.8959 45.1875ZM24.3334 39.5625C22.7132 39.5625 21.2532 40.1683 20.1146 40.8596V24.5863C20.8248 23.9322 22.5021 22.5938 24.3334 22.5938C26.1711 22.5938 27.8418 23.9289 28.5521 24.5853V40.8596C27.4135 40.1683 25.9536 39.5625 24.3334 39.5625ZM32.7709 45.1875C31.9431 45.1875 31.5237 44.4593 31.3646 43.6625V27.9833C31.7782 28.132 32.2447 28.2188 32.7709 28.2188C33.297 28.2188 33.7635 28.132 34.1771 27.9833V43.6642C34.0135 44.4705 33.5946 45.1875 32.7709 45.1875ZM41.2084 39.5625C39.5882 39.5625 38.1282 40.1683 36.9896 40.8596V24.5863C37.6998 23.9322 39.3771 22.5938 41.2084 22.5938C43.0563 22.5938 44.782 23.9365 45.5209 24.5989V40.8562C44.3556 40.1726 42.8543 39.5625 41.2084 39.5625Z" fill="#E53825"/>
</g>
<defs>
<clipPath id="clip0_1_442">
<rect width="48" height="48" fill="white" transform="translate(0.333374)"/>
</clipPath>
</defs>
</svg>
