<svg width="48" height="48" viewBox="0 0 48 48" fill="none" xmlns="http://www.w3.org/2000/svg">
<g clip-path="url(#clip0_1_466)">
<path d="M46.5938 38.572H44.6378V1.40625C44.6378 0.629625 44.0082 0 43.2316 0H4.76841C3.99178 0 3.36216 0.629625 3.36216 1.40625V38.572H1.40625C0.629625 38.572 0 39.2017 0 39.9783V40.0312C0 44.4252 3.57478 48 7.96875 48H40.0312C44.4252 48 48 44.4252 48 40.0312V39.9783C48 39.2017 47.3704 38.572 46.5938 38.572ZM6.17466 2.8125H41.8252V38.572H39.009V7.13109C39.009 6.35447 38.3794 5.72484 37.6028 5.72484H10.3972C9.62053 5.72484 8.99091 6.35447 8.99091 7.13109V38.5721H6.17466V2.8125ZM11.8034 38.572V24.9609H22.5938V38.572H11.8034ZM36.1966 8.53734V22.1484H25.4062V8.53734H36.1966ZM22.5938 22.1484H11.8034V18.4494L16.8983 13.3524C17.4474 12.8032 17.4473 11.9128 16.898 11.3637C16.3487 10.8147 15.4583 10.8148 14.9093 11.3641L11.8035 14.4712V8.53734H22.5938V22.1484ZM25.4062 24.9609H36.1966V38.572H25.4062V24.9609ZM40.0312 45.1875H7.96875C5.59378 45.1875 3.58866 43.5733 2.99269 41.3845H45.0073C44.4113 43.5733 42.4062 45.1875 40.0312 45.1875Z" fill="#E53825"/>
<path d="M16.56 19.3835C16.8346 19.658 17.1944 19.7952 17.5542 19.7952C17.9142 19.7952 18.2742 19.6579 18.5487 19.3832L19.7513 18.1802C20.3004 17.6309 20.3002 16.7405 19.7509 16.1915C19.2016 15.6424 18.3112 15.6426 17.7622 16.1919L16.5597 17.3949C16.0106 17.9441 16.0107 18.8345 16.56 19.3835Z" fill="#E53825"/>
</g>
<defs>
<clipPath id="clip0_1_466">
<rect width="48" height="48" fill="white"/>
</clipPath>
</defs>
</svg>
