<svg width="48" height="48" viewBox="0 0 48 48" fill="none" xmlns="http://www.w3.org/2000/svg">
<g clip-path="url(#clip0_1_511)">
<path d="M42.7138 0H23.5955C22.8189 0 22.1892 0.629645 22.1892 1.40629V8.856L16.1439 25.7847C15.8228 26.6836 15.6794 27.6203 15.7008 28.5475L6.25096 36.4267C3.30374 38.7229 3.06204 43.4665 5.76166 46.0498C8.3693 48.7532 13.0674 48.5112 15.3845 45.5605L22.1893 37.3966V46.5938C22.1893 47.3704 22.819 48.0001 23.5956 48.0001H42.7138C43.4905 48.0001 44.1201 47.3704 44.1201 46.5938V1.40629C44.1201 0.629645 43.4905 0 42.7138 0ZM41.3075 2.81259V24.8228L25.0018 8.51708V2.81259H41.3075ZM18.7927 26.7306L24.1726 11.6654L40.144 27.6368L25.0794 33.0171C23.2986 33.6529 21.284 33.2001 19.9468 31.863C18.6099 30.526 18.1568 28.5112 18.7927 26.7306ZM13.2189 43.7657C11.9145 45.4581 9.22892 45.6041 7.75035 44.0608C6.20745 42.5822 6.35296 39.8963 8.04567 38.5922L16.4079 31.6199C16.7832 32.4383 17.303 33.1968 17.9581 33.8517V33.8518C18.6132 34.507 19.3721 35.0261 20.1908 35.4014L13.2189 43.7657ZM38.5335 45.1874V38.0766C38.5335 37.3 37.9038 36.6703 37.1272 36.6703C36.3505 36.6703 35.7209 37.3 35.7209 38.0766V45.1874H25.0018V35.9516C25.3466 35.8804 25.6888 35.786 26.0253 35.6658L41.3075 30.2078V45.1874H38.5335Z" fill="#E53825"/>
<path d="M29.5884 9.47071C30.3651 9.47071 30.9947 8.84106 30.9947 8.06441V7.03154C30.9947 6.25489 30.3651 5.62524 29.5884 5.62524C28.8118 5.62524 28.1821 6.25489 28.1821 7.03154V8.06441C28.1821 8.84106 28.8118 9.47071 29.5884 9.47071Z" fill="#E53825"/>
<path d="M37.0887 15.1896C37.8653 15.1896 38.495 14.56 38.495 13.7833V7.03154C38.495 6.25489 37.8653 5.62524 37.0887 5.62524C36.312 5.62524 35.6824 6.25489 35.6824 7.03154V13.7833C35.6824 14.56 36.312 15.1896 37.0887 15.1896Z" fill="#E53825"/>
<path d="M12.1697 40.7433C11.9833 39.7187 10.6925 39.2577 9.89902 39.9314C9.03508 40.6226 9.31841 42.0565 10.3828 42.3634C11.3723 42.686 12.3928 41.7593 12.1697 40.7433Z" fill="#E53825"/>
</g>
<defs>
<clipPath id="clip0_1_511">
<rect width="48" height="48" fill="white"/>
</clipPath>
</defs>
</svg>
