<svg width="49" height="48" viewBox="0 0 49 48" fill="none" xmlns="http://www.w3.org/2000/svg">
<g clip-path="url(#clip0_1_499)">
<path d="M47.2605 28.6212C46.8911 28.6212 46.5271 28.5876 46.1709 28.5236V24.6259C46.1709 14.3162 37.7834 5.92865 27.4736 5.92865H27.113V3.31396C27.113 2.53734 26.4833 1.90771 25.7067 1.90771H17.9853C17.2087 1.90771 16.579 2.53734 16.579 3.31396V4.73587H12.8023V3.49556C12.8023 2.71893 12.1727 2.08931 11.3961 2.08931C10.6194 2.08931 9.98981 2.71893 9.98981 3.49556V4.73597H2.073C1.29637 4.73597 0.666748 5.36559 0.666748 6.14222V17.3653C0.666748 18.1419 1.29637 18.7716 2.073 18.7716H9.98981V20.012C9.98981 20.7886 10.6194 21.4182 11.3961 21.4182C12.1727 21.4182 12.8023 20.7886 12.8023 20.012V18.7716H16.579V20.1935C16.579 20.9701 17.2087 21.5997 17.9853 21.5997H25.7067C26.4833 21.5997 27.113 20.9701 27.113 20.1935V17.4382H27.2926C30.6494 17.4382 33.3803 20.1691 33.3803 23.5258V27.1447C33.1945 27.1886 33.0157 27.2706 32.8561 27.3911C31.7918 28.1958 30.5226 28.6212 29.1855 28.6212C27.8484 28.6212 26.5792 28.1959 25.5149 27.3911C25.013 27.0117 24.3203 27.0117 23.8186 27.3911C22.7543 28.1958 21.4851 28.6212 20.1481 28.6212C18.8109 28.6212 17.5417 28.1959 16.4775 27.3911C15.9758 27.0117 15.283 27.0116 14.7812 27.3911C13.7168 28.1959 12.4476 28.6212 11.1106 28.6212C9.77362 28.6212 8.50425 28.1959 7.44 27.3911C6.93806 27.0117 6.24544 27.0117 5.74369 27.3911C4.67944 28.1959 3.41015 28.6212 2.073 28.6212C1.29637 28.6212 0.666748 29.2508 0.666748 30.0275V44.6862C0.666748 45.4628 1.29637 46.0925 2.073 46.0925H47.2605C48.0371 46.0925 48.6667 45.4628 48.6667 44.6862V30.0275C48.6667 29.2508 48.0371 28.6212 47.2605 28.6212ZM3.47925 15.9591V7.54847H9.98981V15.9591H3.47925ZM12.8023 15.9591V7.54847H16.579V15.9591H12.8023ZM24.3006 18.7872H19.3916V4.72022H24.3006V18.7872ZM27.2927 14.6257H27.1131V8.74106H27.4737C36.2326 8.74106 43.3585 15.8669 43.3585 24.6258V27.2499C42.8895 27.0207 42.3222 27.0671 41.8938 27.391C40.8294 28.1958 39.5602 28.6211 38.2232 28.6211C37.521 28.6211 36.8379 28.5027 36.193 28.2747V23.5257C36.1928 18.6183 32.2002 14.6257 27.2927 14.6257ZM6.59175 30.2038C7.95628 31.0112 9.49997 31.4337 11.1105 31.4337C12.721 31.4337 14.2648 31.0112 15.6292 30.2038C16.9937 31.0112 18.5374 31.4337 20.148 31.4337C21.7586 31.4337 23.3023 31.0112 24.6667 30.2038C26.0312 31.0112 27.5749 31.4337 29.1854 31.4337C30.7961 31.4337 32.3397 31.0112 33.7042 30.2038C35.0686 31.0112 36.6123 31.4337 38.2229 31.4337C39.8335 31.4337 41.3772 31.0112 42.7417 30.2038C43.7032 30.7728 44.7538 31.1507 45.8541 31.3242V36.4212C45.0392 36.2293 44.2722 35.8702 43.5898 35.3542C43.0882 34.9747 42.3953 34.9747 41.8935 35.3542C40.8292 36.1589 39.5599 36.5842 38.2229 36.5842C36.8857 36.5842 35.6165 36.1589 34.5523 35.3542C34.0506 34.9747 33.3577 34.9747 32.856 35.3542C31.7917 36.1588 30.5225 36.5842 29.1854 36.5842C27.8483 36.5842 26.5791 36.1589 25.5148 35.3542C25.0129 34.9747 24.3202 34.9747 23.8185 35.3542C22.7542 36.1588 21.485 36.5842 20.148 36.5842C18.8108 36.5842 17.5416 36.1589 16.4774 35.3542C15.9757 34.9747 15.2829 34.9747 14.7811 35.3542C13.7167 36.1589 12.4475 36.5842 11.1105 36.5842C9.77353 36.5842 8.50415 36.1589 7.4399 35.3542C6.93797 34.9747 6.24534 34.9747 5.74359 35.3542C5.06119 35.8702 4.29412 36.2293 3.47925 36.4212V31.3242C4.57959 31.1507 5.63015 30.7729 6.59175 30.2038ZM3.47925 43.28V39.2862C4.5795 39.1127 5.63025 38.7358 6.59175 38.1668C7.95628 38.9742 9.49997 39.3967 11.1105 39.3967C12.721 39.3967 14.2648 38.9742 15.6292 38.1668C16.9937 38.9742 18.5374 39.3967 20.148 39.3967C21.7586 39.3967 23.3023 38.9742 24.6667 38.1668C26.0312 38.9742 27.5749 39.3967 29.1854 39.3967C30.7961 39.3967 32.3397 38.9742 33.7042 38.1668C35.0686 38.9742 36.6123 39.3967 38.2229 39.3967C39.8335 39.3967 41.3772 38.9742 42.7417 38.1668C43.7032 38.7358 44.7539 39.1127 45.8541 39.2862V43.28H3.47925Z" fill="#E53825"/>
</g>
<defs>
<clipPath id="clip0_1_499">
<rect width="48" height="48" fill="white" transform="translate(0.666748)"/>
</clipPath>
</defs>
</svg>
