<svg width="49" height="48" viewBox="0 0 49 48" fill="none" xmlns="http://www.w3.org/2000/svg">
<g clip-path="url(#clip0_1_480)">
<path d="M19.3321 5.13915C18.7831 4.59001 17.8928 4.59001 17.3436 5.13915L14.3607 8.12201L13.8304 7.59171C13.2814 7.04258 12.391 7.04258 11.8419 7.59171L9.58814 9.84545C7.94344 11.4902 7.94344 14.1664 9.58814 15.8111L16.5481 22.7711L14.4572 24.862C13.908 25.4112 13.908 26.3014 14.4572 26.8506L14.9875 27.3809L1.56759 40.8007C0.773036 41.5952 0.335449 42.6545 0.335449 43.7835C0.335449 44.9125 0.773036 45.9718 1.56768 46.7663C2.38999 47.5887 3.47027 47.9999 4.55055 47.9999C5.63073 47.9999 6.71101 47.5887 7.53332 46.7663L20.9532 33.3464L21.4835 33.8767C21.7472 34.1404 22.1048 34.2886 22.4777 34.2886C22.8507 34.2886 23.2083 34.1404 23.4719 33.8767L25.5629 31.7858L32.5228 38.7458C33.3181 39.5411 34.3775 39.9791 35.5057 39.9791C36.6339 39.9791 37.6932 39.5411 38.4885 38.7458L40.7423 36.492C41.2914 35.9429 41.2914 35.0526 40.7423 34.5035L40.212 33.9732L43.1948 30.9903C43.744 30.4412 43.744 29.5509 43.1948 29.0018L19.3321 5.13915ZM5.54477 44.7779C4.99648 45.3261 4.10443 45.3261 3.55614 44.7778C3.29272 44.5143 3.1477 44.1613 3.1477 43.7835C3.1477 43.4058 3.29272 43.0527 3.55614 42.7893L16.976 29.3694L18.9647 31.3581L5.54477 44.7779ZM36.5 36.7573C36.2359 37.0215 35.8828 37.167 35.5058 37.167C35.1287 37.167 34.7756 37.0215 34.5115 36.7573L26.5573 28.803C26.2827 28.5285 25.9228 28.3911 25.563 28.3911C25.2033 28.3911 24.8433 28.5284 24.5688 28.803L22.4779 30.8939L17.4402 25.8563L19.5311 23.7654C20.0803 23.2162 20.0803 22.326 19.5311 21.7768L11.5769 13.8225C11.0287 13.2742 11.0287 12.3822 11.5769 11.834L12.8363 10.5746L37.7597 35.498L36.5 36.7573ZM38.2234 31.9846L16.3493 10.1105L18.3378 8.12192L40.2121 29.9961L38.2234 31.9846Z" fill="#E53825"/>
<path d="M47.8074 24.1243C47.2027 23.637 46.3175 23.7322 45.8303 24.3369L45.6136 24.6059C45.1263 25.2106 45.2215 26.0958 45.8263 26.583C46.0862 26.7925 46.3979 26.8943 46.7076 26.8943C47.1184 26.8943 47.5256 26.7152 47.8034 26.3704L48.0201 26.1014C48.5073 25.4968 48.412 24.6116 47.8074 24.1243Z" fill="#E53825"/>
<path d="M22.065 3.81234C22.4249 3.81234 22.7847 3.6751 23.0592 3.40044L24.0593 2.4004C24.6084 1.85126 24.6084 0.960994 24.0593 0.411854C23.5102 -0.137285 22.6198 -0.137285 22.0707 0.411854L21.0707 1.41189C20.5215 1.96103 20.5215 2.8513 21.0707 3.40044C21.3453 3.67501 21.7051 3.81234 22.065 3.81234Z" fill="#E53825"/>
<path d="M47.9202 16.3537C47.3729 15.8029 46.4825 15.8 45.9316 16.3473L41.9641 20.2896C41.4133 20.837 41.4104 21.7272 41.9577 22.2781C42.2326 22.5548 42.5938 22.6931 42.9552 22.6931C43.3135 22.6931 43.672 22.5569 43.9463 22.2845L47.9138 18.3423C48.4647 17.7949 48.4675 16.9046 47.9202 16.3537Z" fill="#E53825"/>
<path d="M45.3614 8.93822L38.3307 15.9689C37.7816 16.518 37.7816 17.4083 38.3307 17.9574C38.6053 18.232 38.9652 18.3693 39.325 18.3693C39.6847 18.3693 40.0447 18.2321 40.3192 17.9574L47.3498 10.9268C47.899 10.3776 47.899 9.48736 47.3498 8.93822C46.8009 8.38908 45.9105 8.38908 45.3614 8.93822Z" fill="#E53825"/>
<path d="M34.4519 13.882C34.7265 14.1565 35.0864 14.2939 35.4462 14.2939C35.806 14.2939 36.1659 14.1566 36.4404 13.882L47.9194 2.40308C48.4685 1.85394 48.4685 0.963679 47.9194 0.41454C47.3703 -0.134599 46.4799 -0.134599 45.9308 0.41454L34.4519 11.8934C33.9029 12.4425 33.9029 13.3328 34.4519 13.882Z" fill="#E53825"/>
<path d="M29.7952 10.5844C30.0698 10.859 30.4297 10.9963 30.7895 10.9963C31.1492 10.9963 31.5092 10.8591 31.7837 10.5844L37.0307 5.33741C37.5798 4.78827 37.5798 3.89801 37.0307 3.34887C36.4816 2.79973 35.5913 2.79973 35.0421 3.34887L29.7951 8.59587C29.2461 9.14501 29.2461 10.0353 29.7952 10.5844Z" fill="#E53825"/>
<path d="M26.8229 7.00865C27.1826 7.00865 27.5426 6.87132 27.8171 6.59675L31.2491 3.16477C31.7982 2.61572 31.7982 1.72536 31.2491 1.17622C30.7 0.627178 29.8098 0.627084 29.2605 1.17622L25.8285 4.6083C25.2794 5.15734 25.2794 6.0477 25.8285 6.59684C26.1031 6.87141 26.4629 7.00865 26.8229 7.00865Z" fill="#E53825"/>
</g>
<defs>
<clipPath id="clip0_1_480">
<rect width="48" height="48" fill="white" transform="translate(0.333374)"/>
</clipPath>
</defs>
</svg>
