<svg width="49" height="48" viewBox="0 0 49 48" fill="none" xmlns="http://www.w3.org/2000/svg">
<g clip-path="url(#clip0_1_454)">
<path d="M41.9283 5.66606H38.8768C38.8022 4.57684 38.6453 3.46096 38.402 2.25291C38.1348 0.926409 37.0032 0 35.6501 0H7.22251C5.86813 0 4.73634 0.927532 4.47033 2.25544C3.76754 5.76206 3.76726 8.48561 4.4692 11.9694C4.71893 13.2094 5.72413 14.0996 6.9595 14.2102V19.083C6.9595 21.4047 8.84834 23.2936 11.17 23.2936C13.0526 23.2936 14.6506 22.0516 15.1877 20.344C15.6577 20.5244 16.1653 20.6222 16.6905 20.6222C19.0122 20.6222 20.901 18.7334 20.901 16.4117V14.2222H35.6487C37.0031 14.2222 38.1349 13.2948 38.401 11.967C38.6496 10.7271 38.8085 9.58568 38.8813 8.47298H41.9284C42.2896 8.47298 42.5835 8.76697 42.5835 9.12823V15.8537C42.5835 16.1764 42.3708 16.4348 42.054 16.4967L22.879 20.2443C21.2315 20.5662 20.0808 21.9635 20.0808 23.6422V30.1284H18.6766C17.9432 30.1284 17.3335 30.6931 17.2773 31.4245L16.4292 42.4656C16.3158 43.9427 16.7577 45.2797 17.7072 46.3319C18.6915 47.4233 19.9887 48 21.4585 48C22.9829 48 24.2622 47.4388 25.261 46.3319C26.2104 45.2794 26.6523 43.9424 26.5388 42.4654L25.6902 31.4245C25.6339 30.6932 25.0242 30.1285 24.2908 30.1285H22.8876V23.6423C22.8876 23.3196 23.1004 23.0611 23.4172 22.9993L42.5923 19.2516C44.2398 18.9298 45.3905 17.5324 45.3905 15.8538V9.12833C45.3905 7.21918 43.8373 5.66606 41.9283 5.66606ZM35.6503 2.80767C35.8593 3.84571 35.9973 4.7957 36.0674 5.7178C36.0474 5.72005 36.0275 5.72089 36.0074 5.72398C33.6896 6.08047 31.1588 6.26901 28.6887 6.26901C27.5083 6.26901 26.3281 6.13689 25.0788 5.99701C23.8079 5.85469 22.4937 5.7076 21.1565 5.7076C19.8194 5.7076 18.5052 5.85469 17.2343 5.99701C15.985 6.13689 14.8049 6.26901 13.6244 6.26901C11.3911 6.26901 9.20951 6.11705 6.80006 5.79237C6.86911 4.8494 7.00862 3.87574 7.22251 2.80702L35.6503 2.80767ZM18.094 16.4117C18.094 17.1856 17.4644 17.8152 16.6905 17.8152C16.0554 17.8152 15.4974 17.3846 15.3335 16.7681C15.1523 16.087 14.4942 15.6458 13.7952 15.7371C13.0963 15.8284 12.5735 16.4239 12.5735 17.1287V19.0831C12.5735 19.857 11.9439 20.4866 11.17 20.4866C10.3961 20.4866 9.76651 19.857 9.76651 19.0831V14.2222H18.094V16.4117ZM7.22074 11.4145C7.02078 10.4219 6.88492 9.50943 6.81213 8.62503C9.1965 8.93174 11.3834 9.07602 13.6244 9.07602C14.9616 9.07602 16.2757 8.92894 17.5466 8.78662C18.796 8.64674 19.9761 8.51462 21.1565 8.51462C22.337 8.51462 23.5172 8.64674 24.7665 8.78662C26.0374 8.92894 27.3515 9.07602 28.6887 9.07602C31.169 9.07602 33.7081 8.89375 36.0626 8.55149C35.9907 9.45675 35.8535 10.3926 35.6487 11.4152L7.22074 11.4145ZM23.7401 42.6804C23.7955 43.4014 23.6165 43.9642 23.1768 44.4516C22.7142 44.9642 22.1842 45.193 21.4585 45.193C20.7866 45.193 20.2412 44.9505 19.791 44.4516C19.3514 43.9643 19.1724 43.4015 19.2278 42.6806L19.9763 32.9355H22.991L23.7401 42.6804Z" fill="#E53825"/>
</g>
<defs>
<clipPath id="clip0_1_454">
<rect width="48" height="48" fill="white" transform="translate(0.666748)"/>
</clipPath>
</defs>
</svg>
