<svg width="32" height="32" viewBox="0 0 32 32" fill="none" xmlns="http://www.w3.org/2000/svg">
<g clip-path="url(#clip0_0_312)">
<path d="M23.563 2.33936C23.3872 2.16211 23.1475 2.0625 22.8977 2.0625C22.648 2.0625 22.4085 2.16235 22.2325 2.3396L19.4629 5.13062C19.2796 5.31519 19.0362 5.417 18.7779 5.417C18.5811 5.417 13.8738 5.417 13.0489 5.417C12.7903 5.417 12.5471 5.31519 12.3621 5.12916L9.64113 2.40064C9.46535 2.22412 9.22633 2.125 8.97731 2.125C8.97707 2.125 8.97658 2.125 8.97633 2.125C8.72682 2.12524 8.48781 2.2251 8.31203 2.4021L0.209718 10.5642C-0.153808 10.9304 -0.153076 11.5215 0.211427 11.887L2.53516 14.2151C2.97535 14.6587 3.21778 15.2488 3.21778 15.877C3.21778 16.6897 3.44581 17.4671 3.86964 18.1367C2.94727 19.2583 3.00684 20.9287 4.04932 21.9788C4.55396 22.4873 5.21485 22.7813 5.92359 22.816C5.95607 23.5015 6.23146 24.1773 6.75001 24.6995C7.25465 25.208 7.91554 25.502 8.62453 25.5367C8.65675 26.2222 8.93239 26.898 9.4507 27.4202C10.2669 28.2425 11.438 28.4498 12.427 28.0945C12.5633 28.4881 12.7869 28.8572 13.0984 29.1709C14.2115 30.2925 16.0164 30.2928 17.1297 29.1709L17.5254 28.7725C17.7727 28.5232 17.9644 28.2388 18.1011 27.9353C19.2083 28.9136 20.9148 28.8919 21.9937 27.805C22.5122 27.2828 22.7876 26.607 22.8199 25.9214C23.5286 25.887 24.1897 25.5928 24.6944 25.0843C25.2129 24.562 25.4883 23.8863 25.5208 23.2007C26.2293 23.1663 26.8904 22.8721 27.3951 22.3638C28.4317 21.3196 28.4969 19.6616 27.5906 18.5401C28.251 17.6096 28.6087 16.499 28.6087 15.3328C28.6087 15.0596 28.7183 14.7925 28.9095 14.5999L31.6653 11.8225C32.0281 11.457 32.0281 10.8672 31.6653 10.5017L23.563 2.33936ZM5.38014 19.2581L6.73048 17.8977C7.10963 17.5157 7.72096 17.5154 8.10036 17.8977C8.48366 18.2837 8.48366 18.9116 8.10036 19.2974L6.75001 20.658C6.37062 21.0401 5.75953 21.0401 5.38014 20.658C4.99708 20.272 4.99708 19.6441 5.38014 19.2581ZM8.08082 21.9788L10.7815 19.2581C11.1609 18.876 11.7722 18.8758 12.1516 19.2581C12.5347 19.6441 12.5347 20.272 12.1516 20.658C11.189 21.6277 11.1377 21.6792 9.4507 23.3787C9.07131 23.7605 8.46022 23.7608 8.08082 23.3785C7.69777 22.9927 7.69777 22.3648 8.08082 21.9788ZM10.7815 26.0992C10.3985 25.7134 10.3985 25.0855 10.7815 24.6995L12.1319 23.3391C12.5113 22.9571 13.1226 22.9571 13.502 23.3391C13.8557 23.6956 13.8821 24.2578 13.5823 24.646C13.4998 24.7222 13.6226 24.5996 12.1516 26.0992C11.7722 26.4815 11.1612 26.4817 10.7815 26.0992ZM16.1949 27.4515L15.7991 27.8499C15.4197 28.2322 14.8086 28.2322 14.4292 27.8499C14.0801 27.4983 14.0501 26.9463 14.3372 26.5591C14.8518 26.0389 14.8267 26.0696 14.9163 25.9715C15.2991 25.6705 15.8457 25.7002 16.1949 26.0518C16.5779 26.4378 16.5777 27.0657 16.1949 27.4515ZM26.0645 21.0428C25.6851 21.4248 25.0738 21.4248 24.6944 21.0428L22.9485 19.284C22.5838 18.9165 21.99 18.9143 21.6226 19.2791C21.2552 19.6438 21.253 20.2373 21.6177 20.6048L23.3638 22.3636C23.7469 22.7495 23.7469 23.3775 23.3638 23.7632C22.9844 24.1455 22.3731 24.1455 21.9937 23.7632L20.2478 22.0044C19.8828 21.637 19.2893 21.6348 18.9219 21.9995C18.5545 22.3643 18.5523 22.958 18.917 23.3255L20.6629 25.0843C21.0462 25.4703 21.0462 26.0982 20.6629 26.4839C20.2837 26.8663 19.6724 26.8663 19.2928 26.4839C17.4549 24.6475 17.543 24.6878 17.3579 24.576C16.8804 24.1648 16.2888 23.9265 15.6585 23.8943C15.6245 23.2115 15.3491 22.5386 14.8328 22.0181C14.5679 21.7515 14.2598 21.544 13.9246 21.4019C14.5603 20.3074 14.4131 18.8748 13.4822 17.9373C12.5281 16.9761 11.1009 16.8596 10.0366 17.4829C9.8987 17.1536 9.69728 16.8448 9.43117 16.5769C8.31789 15.4553 6.5132 15.4553 5.39967 16.5769L5.25025 16.7276C5.14723 16.46 5.09278 16.1726 5.09278 15.877C5.09278 14.7505 4.65699 13.6914 3.86402 12.8924L2.19776 11.2229L8.97878 4.39161L11.033 6.45142C11.492 6.91383 12.0806 7.19825 12.7166 7.27198L8.52711 12.2991C8.19582 12.697 8.24953 13.2881 8.64723 13.6194C9.6089 14.4209 10.8252 14.8001 12.072 14.6868C13.3186 14.5735 14.4468 13.9815 15.2493 13.0183C15.585 12.6155 16.1497 12.4942 16.6231 12.7227C17.5891 13.1895 18.6509 13.3599 19.6953 13.2266L26.0645 19.6429C26.4476 20.0288 26.4476 20.6568 26.0645 21.0428ZM27.5789 13.2788C27.0337 13.8279 26.7337 14.5574 26.7337 15.3328C26.7337 15.9871 26.564 16.6145 26.2471 17.1653L21.6873 12.572C22.6194 12.0535 23.3838 11.2739 23.8909 10.3076C24.1314 9.84913 23.9546 9.28248 23.4961 9.042C23.0376 8.80128 22.471 8.97804 22.2305 9.43654C21.7217 10.4063 20.8484 11.0535 19.8701 11.2932C19.8272 11.2998 19.7845 11.3091 19.7427 11.3218C18.991 11.4773 18.1851 11.395 17.4387 11.0344C16.189 10.4307 14.6966 10.7529 13.8079 11.8194C13.3269 12.3963 12.6502 12.7515 11.9024 12.8196C11.4773 12.8582 11.0584 12.8013 10.6697 12.657L15.0098 7.44825C15.3499 7.34449 15.7024 7.28394 16.0579 7.28394H18.7779C19.5396 7.28394 20.2554 6.99342 20.7937 6.45142L22.898 4.33081L29.6792 11.1621L27.5789 13.2788Z" fill="#FFCC00"/>
</g>
<defs>
<clipPath id="clip0_0_312">
<rect width="32" height="32" fill="white"/>
</clipPath>
</defs>
</svg>
