<svg width="32" height="32" viewBox="0 0 32 32" fill="none" xmlns="http://www.w3.org/2000/svg">
<g clip-path="url(#clip0_0_319)">
<path d="M19.0881 7.85282L21.2807 9.47495C21.5275 9.65751 21.4028 10.0615 21.0907 10.0634L20.4026 10.0676C20.4019 10.0676 20.4013 10.0676 20.4006 10.0676C20.2236 10.0676 20.0791 9.92438 20.078 9.74738C20.0748 9.22963 19.6528 8.81144 19.1348 8.81569C18.6171 8.81888 18.1999 9.2412 18.2031 9.75895C18.2093 10.7593 18.8866 11.6008 19.8045 11.8599V11.9053C19.8045 12.423 20.2243 12.8428 20.7419 12.8428C21.2596 12.8428 21.6794 12.423 21.6794 11.9053V11.8579C22.0446 11.7567 22.379 11.5619 22.6525 11.2849C23.0651 10.8671 23.2903 10.3136 23.2862 9.72488V9.71901C23.2815 9.03138 22.9486 8.37663 22.3958 7.96763L20.2032 6.34557C19.9542 6.16132 20.085 5.76432 20.3952 5.76432H21.0843C21.2623 5.76432 21.407 5.90888 21.407 6.08657C21.407 6.60432 21.8268 7.02407 22.3444 7.02407C22.8621 7.02407 23.2819 6.60432 23.2819 6.08657C23.2819 5.08126 22.6028 4.23201 21.6793 3.97188V3.92676C21.6793 3.40901 21.2596 2.98926 20.7419 2.98926C20.2242 2.98926 19.8044 3.40901 19.8044 3.92676V3.97063C18.8788 4.22932 18.1976 5.07963 18.1976 6.08657C18.1976 6.78001 18.5305 7.44026 19.0881 7.85282Z" fill="#FFCC00"/>
<path d="M20.7419 15.8322C25.1081 15.8322 28.6601 12.2811 28.6601 7.91606C28.6601 3.55106 25.108 0 20.7419 0C16.3759 0 12.8238 3.55113 12.8238 7.91612C12.8238 12.2811 16.3759 15.8322 20.7419 15.8322ZM20.7419 1.875C24.0742 1.875 26.7851 4.58506 26.7851 7.91612C26.7851 11.2472 24.0742 13.9572 20.7419 13.9572C17.4098 13.9572 14.6988 11.2472 14.6988 7.91612C14.6988 4.58506 17.4098 1.875 20.7419 1.875Z" fill="#FFCC00"/>
<path d="M31.3553 17.9492C30.3414 16.6438 28.5109 16.3982 27.1933 17.3124L23.6263 19.6987C23.1306 18.7757 22.156 18.1466 21.0369 18.1466H18.4925C17.2081 16.942 15.4934 16.2581 13.7248 16.2581C12.3974 16.2581 11.1061 16.6331 9.99063 17.3426C8.98557 17.9819 8.16344 18.865 7.5985 19.9076L7.12088 20.1997L6.99713 19.8377C6.82963 19.3479 6.29688 19.0865 5.807 19.2539L0.634567 21.0213C0.144879 21.1886 -0.116871 21.7218 0.0506291 22.2117L3.18019 31.3656C3.34775 31.8557 3.88069 32.1167 4.37032 31.9495L9.54275 30.1822C10.0047 30.0243 10.3073 29.5201 10.1163 28.9614L18.3239 28.7074C20.5591 28.7044 22.7026 28.0179 24.5233 26.722L30.7128 22.3194C32.1318 21.3093 32.4248 19.3251 31.3553 17.9492ZM4.65107 29.8721L2.12807 22.4924L5.52625 21.3313C5.89232 22.4021 7.67144 27.6059 8.04925 28.7111L4.65107 29.8721ZM29.6259 20.7916L23.4364 25.1942C21.9307 26.2659 20.1576 26.8323 18.309 26.8323C18.2994 26.8323 18.2896 26.8324 18.28 26.8327L9.48169 27.1051L7.74232 22.0174L8.7995 21.3709C8.79975 21.3707 8.79994 21.3706 8.80019 21.3704C8.95582 21.2751 9.0775 21.1353 9.15175 20.984C10.0146 19.2254 11.7669 18.1329 13.7248 18.1329C15.1397 18.1329 16.4538 18.6994 17.4251 19.7279C17.604 19.9174 17.861 20.0214 18.1067 20.0214H21.0369C21.6227 20.0214 22.0992 20.4977 22.0992 21.0831C22.0992 21.6624 21.6306 22.1448 21.0369 22.1448H15.7476C15.2299 22.1448 14.8102 22.5646 14.8102 23.0823C14.8102 23.6001 15.2299 24.0198 15.7476 24.0198H21.0369C21.8221 24.0198 22.5598 23.7141 23.1135 23.1596C23.5009 22.7723 23.7663 22.2959 23.8916 21.7769L28.2429 18.8659C28.2481 18.8624 28.2533 18.8588 28.2585 18.8552C28.7716 18.4967 29.4824 18.5943 29.8748 19.0995C30.2886 19.632 30.1755 20.4004 29.6259 20.7916Z" fill="#FFCC00"/>
</g>
<defs>
<clipPath id="clip0_0_319">
<rect width="32" height="32" fill="white"/>
</clipPath>
</defs>
</svg>
