<svg width="451" height="452" viewBox="0 0 451 452" fill="none" xmlns="http://www.w3.org/2000/svg">
<path d="M192.611 164.312C227.878 80.0595 349.068 57.7877 411.92 124.663C475.366 183.829 458.851 300.023 381.979 339.197C389.207 291.8 373.246 242.838 341.266 209.371C304.652 169.464 245.384 151.551 192.611 164.292V164.312ZM363.405 316.291C363.444 264.357 334.018 217.911 288.671 195.005C308.632 298.696 208.65 396.699 104.867 373.694C126.828 420.358 172.967 451.329 226.354 451.963C300.869 453.766 364.415 389.923 363.385 316.291H363.405ZM198.452 288.293C113.065 273.491 54.2331 182.838 76.3126 98.1898C-6.34175 134.094 -26.5797 255.796 39.0249 316.568C98.0948 379.282 211.007 364.342 251.978 289.165C234.591 291.959 215.66 291.602 198.472 288.293H198.452ZM92.1742 135.085C92.1742 185.851 120.194 231.345 163.917 254.826C137.264 149.292 238.314 44.0558 345.345 67.4174C276.988 -51.9666 91.8771 -2.48879 92.1742 135.105V135.085Z" fill="white"/>
</svg>
